<svg xmlns="http://www.w3.org/2000/svg" xmlns:xlink="http://www.w3.org/1999/xlink" width="500" zoomAndPan="magnify" viewBox="0 0 375 374.999991" height="500" preserveAspectRatio="xMidYMid meet" version="1.0"><defs><clipPath id="f09fe1f59b"><path d="M 166 134.816406 L 207 134.816406 L 207 171 L 166 171 Z M 166 134.816406 " clip-rule="nonzero"/></clipPath><clipPath id="e625ba9e90"><path d="M 154.039062 168 L 195 168 L 195 194 L 154.039062 194 Z M 154.039062 168 " clip-rule="nonzero"/></clipPath><clipPath id="faacf3d7a3"><path d="M 154.039062 180 L 195 180 L 195 194 L 154.039062 194 Z M 154.039062 180 " clip-rule="nonzero"/></clipPath><clipPath id="e941a67738"><path d="M 154.039062 162 L 196 162 L 196 194.066406 L 154.039062 194.066406 Z M 154.039062 162 " clip-rule="nonzero"/></clipPath></defs><path fill="#eec373" d="M 198.3125 150.03125 C 197.367188 148.160156 196.386719 146.226562 193.4375 144.398438 C 188.355469 141.25 181.730469 142.964844 181.671875 142.980469 C 181.613281 142.996094 177.898438 143.875 174.742188 146.460938 C 174.738281 146.484375 174.726562 146.496094 174.707031 146.503906 C 174.699219 146.507812 174.691406 146.507812 174.683594 146.503906 C 173.570312 147.414062 172.640625 148.488281 171.894531 149.722656 C 170.128906 152.710938 170.15625 154.886719 170.183594 156.988281 C 170.207031 158.945312 170.230469 160.796875 168.90625 163.226562 C 166.761719 167.140625 167.167969 168.277344 167.445312 168.585938 C 167.648438 168.8125 168 168.847656 168.402344 168.675781 C 168.800781 168.507812 169.171875 168.292969 169.519531 168.03125 C 169.542969 168.011719 169.570312 168.011719 169.59375 168.03125 C 169.621094 168.046875 169.632812 168.070312 169.625 168.101562 C 169.625 168.117188 169.230469 169.769531 170.085938 170.042969 C 170.941406 170.316406 171.710938 169.480469 171.726562 169.472656 C 171.734375 169.460938 171.746094 169.453125 171.761719 169.449219 C 171.773438 169.449219 171.78125 169.449219 171.792969 169.449219 C 171.839844 169.460938 176.445312 170.527344 187.613281 167.765625 C 198.78125 165.003906 202.613281 161.851562 202.652344 161.816406 C 202.671875 161.800781 202.695312 161.796875 202.71875 161.808594 C 202.726562 161.808594 203.785156 162.207031 204.429688 161.550781 C 205.074219 160.894531 203.953125 159.628906 203.941406 159.617188 C 203.921875 159.59375 203.917969 159.566406 203.933594 159.539062 C 203.949219 159.511719 203.972656 159.5 204.003906 159.507812 C 204.433594 159.578125 204.859375 159.597656 205.292969 159.558594 C 205.734375 159.523438 206.03125 159.328125 206.105469 159.03125 C 206.207031 158.628906 206.039062 157.433594 202.335938 154.964844 C 200.03125 153.433594 199.195312 151.78125 198.3125 150.03125 Z M 198.3125 150.03125 " fill-opacity="1" fill-rule="nonzero"/><path fill="#ffdf7b" d="M 171.773438 149.660156 C 172.523438 148.414062 173.460938 147.332031 174.589844 146.417969 C 174.367188 145.886719 172.625 141.863281 170.039062 141.058594 C 169.582031 140.917969 169.175781 141.058594 168.828125 141.496094 C 167.335938 143.371094 167.296875 150.671875 170.046875 155.503906 C 170.097656 153.816406 170.398438 151.984375 171.773438 149.660156 Z M 171.773438 149.660156 " fill-opacity="1" fill-rule="nonzero"/><path fill="#ffdf7b" d="M 193.464844 144.179688 C 192.222656 143.40625 190.886719 142.867188 189.457031 142.566406 C 189.40625 141.984375 189.070312 137.519531 190.980469 135.566406 C 191.316406 135.226562 191.746094 135.167969 192.253906 135.398438 C 194.453125 136.398438 197.894531 142.988281 197.726562 148.660156 C 196.886719 147.15625 195.765625 145.636719 193.464844 144.179688 Z M 193.464844 144.179688 " fill-opacity="1" fill-rule="nonzero"/><path fill="#ffdf7b" d="M 193.464844 144.179688 C 192.222656 143.40625 190.886719 142.867188 189.457031 142.566406 C 189.40625 141.984375 189.070312 137.519531 190.980469 135.566406 C 191.316406 135.226562 191.746094 135.167969 192.253906 135.398438 C 194.453125 136.398438 197.894531 142.988281 197.726562 148.660156 C 196.886719 147.15625 195.765625 145.636719 193.464844 144.179688 Z M 193.464844 144.179688 " fill-opacity="1" fill-rule="nonzero"/><path fill="#eae2ce" d="M 203.996094 159.503906 C 204.425781 159.574219 204.855469 159.59375 205.285156 159.558594 C 205.726562 159.519531 206.023438 159.324219 206.097656 159.027344 C 206.1875 158.679688 206.070312 157.71875 203.558594 155.828125 C 203.097656 155.601562 200.546875 154.433594 197.503906 154.929688 C 190.945312 156 184.617188 155.21875 184.617188 155.21875 C 184.617188 155.21875 178.871094 159.101562 173.597656 160.894531 C 170.816406 161.839844 168.878906 163.777344 168.277344 164.433594 C 166.84375 167.386719 167.191406 168.3125 167.4375 168.585938 C 167.640625 168.816406 167.992188 168.847656 168.394531 168.679688 C 168.792969 168.507812 169.164062 168.292969 169.511719 168.03125 C 169.535156 168.011719 169.5625 168.011719 169.589844 168.03125 C 169.617188 168.046875 169.625 168.074219 169.617188 168.105469 C 169.617188 168.121094 169.222656 169.769531 170.078125 170.042969 C 170.933594 170.316406 171.707031 169.480469 171.71875 169.472656 C 171.730469 169.460938 171.742188 169.453125 171.753906 169.453125 C 171.765625 169.449219 171.777344 169.449219 171.785156 169.453125 C 171.832031 169.460938 176.4375 170.527344 187.605469 167.765625 C 198.773438 165.007812 202.605469 161.851562 202.644531 161.820312 C 202.664062 161.804688 202.6875 161.800781 202.710938 161.808594 C 202.722656 161.808594 203.777344 162.207031 204.421875 161.554688 C 205.066406 160.898438 203.945312 159.628906 203.933594 159.621094 C 203.914062 159.59375 203.910156 159.570312 203.925781 159.539062 C 203.941406 159.511719 203.964844 159.5 203.996094 159.503906 Z M 203.996094 159.503906 " fill-opacity="1" fill-rule="nonzero"/><path fill="#fffbf0" d="M 205.632812 157.769531 L 205.609375 157.738281 L 205.523438 157.628906 L 205.503906 157.601562 C 205.464844 157.554688 205.425781 157.507812 205.382812 157.464844 L 205.371094 157.453125 C 205.332031 157.410156 205.292969 157.363281 205.25 157.316406 L 205.210938 157.273438 C 205.175781 157.234375 205.136719 157.195312 205.097656 157.15625 L 204.902344 156.960938 C 204.894531 156.957031 204.894531 156.953125 204.890625 156.945312 L 204.710938 156.777344 L 204.65625 156.726562 C 204.609375 156.683594 204.558594 156.644531 204.507812 156.597656 L 204.441406 156.542969 C 204.390625 156.496094 204.335938 156.449219 204.277344 156.402344 L 204.222656 156.359375 L 203.988281 156.164062 L 203.933594 156.121094 L 203.730469 155.960938 L 203.644531 155.898438 L 203.550781 155.828125 C 203.082031 155.59375 200.53125 154.433594 197.5 154.929688 C 190.945312 156 184.617188 155.21875 184.617188 155.21875 C 184.617188 155.21875 178.871094 159.101562 173.597656 160.894531 C 172.382812 161.316406 171.261719 161.917969 170.230469 162.6875 C 168.675781 165.765625 169.019531 166.710938 169.261719 166.980469 C 169.453125 167.195312 169.785156 167.226562 170.175781 167.066406 C 170.550781 166.90625 170.902344 166.703125 171.230469 166.453125 C 171.253906 166.4375 171.277344 166.4375 171.304688 166.453125 C 171.328125 166.46875 171.335938 166.492188 171.332031 166.523438 C 171.332031 166.539062 170.957031 168.101562 171.769531 168.363281 C 172.578125 168.621094 173.304688 167.828125 173.3125 167.820312 C 173.324219 167.8125 173.332031 167.804688 173.34375 167.800781 C 173.355469 167.796875 173.367188 167.796875 173.375 167.800781 C 173.425781 167.800781 177.785156 168.816406 188.335938 166.207031 C 198.890625 163.597656 202.527344 160.605469 202.566406 160.574219 C 202.585938 160.554688 202.605469 160.554688 202.628906 160.5625 C 202.636719 160.5625 203.636719 160.941406 204.25 160.320312 C 204.285156 160.285156 204.316406 160.246094 204.339844 160.199219 L 204.308594 160.144531 L 204.265625 160.070312 L 204.226562 160.011719 C 204.210938 159.992188 204.199219 159.972656 204.1875 159.953125 L 204.148438 159.898438 L 204.117188 159.851562 L 204.082031 159.800781 L 204.019531 159.722656 C 204.011719 159.710938 204.003906 159.699219 203.992188 159.6875 L 203.976562 159.664062 L 203.953125 159.636719 L 203.941406 159.625 L 203.929688 159.609375 C 203.910156 159.585938 203.90625 159.5625 203.921875 159.53125 C 203.9375 159.503906 203.960938 159.496094 203.992188 159.5 C 203.992188 159.5 204.148438 159.53125 204.386719 159.550781 C 204.25 159.019531 203.792969 158.496094 203.785156 158.488281 C 203.765625 158.464844 203.761719 158.441406 203.777344 158.414062 C 203.792969 158.386719 203.816406 158.378906 203.84375 158.382812 C 204.25 158.453125 204.65625 158.46875 205.0625 158.433594 C 205.441406 158.402344 205.703125 158.246094 205.804688 158.007812 C 205.78125 157.96875 205.75 157.925781 205.722656 157.886719 C 205.71875 157.878906 205.710938 157.871094 205.707031 157.863281 C 205.6875 157.835938 205.660156 157.800781 205.632812 157.769531 Z M 205.632812 157.769531 " fill-opacity="1" fill-rule="nonzero"/><path fill="#fffbf0" d="M 189.984375 150.964844 C 190.195312 150.886719 190.386719 150.785156 190.566406 150.648438 C 190.746094 150.527344 190.816406 150.359375 190.773438 150.148438 C 190.699219 149.914062 190.398438 149.773438 190.121094 149.660156 C 189.792969 149.523438 189.425781 149.386719 189.0625 149.441406 C 188.550781 149.515625 188.261719 149.917969 188.042969 150.28125 C 187.835938 150.617188 187.535156 151 187.292969 151.378906 C 187.082031 151.710938 187.546875 152.066406 187.96875 151.882812 C 188.660156 151.597656 189.335938 151.242188 189.984375 150.964844 Z M 189.984375 150.964844 " fill-opacity="1" fill-rule="nonzero"/><path fill="#fffbf0" d="M 178.230469 153.871094 C 178.011719 153.902344 177.789062 153.898438 177.570312 153.863281 C 177.359375 153.835938 177.21875 153.71875 177.160156 153.515625 C 177.117188 153.273438 177.320312 153.007812 177.511719 152.78125 C 177.742188 152.503906 178 152.214844 178.351562 152.09375 C 178.835938 151.921875 179.28125 152.144531 179.640625 152.367188 C 179.980469 152.574219 180.421875 152.769531 180.8125 152.996094 C 181.152344 153.191406 180.90625 153.714844 180.449219 153.757812 C 179.699219 153.816406 178.933594 153.816406 178.230469 153.871094 Z M 178.230469 153.871094 " fill-opacity="1" fill-rule="nonzero"/><path fill="#af7537" d="M 181.699219 159.246094 C 181.699219 159.246094 180.707031 161.589844 182.765625 162.097656 C 184.824219 162.609375 188.421875 161.722656 188.421875 161.722656 C 188.421875 161.722656 190.5 160.542969 190.492188 159.0625 C 190.484375 157.585938 189.40625 156.734375 188.179688 157.101562 C 186.957031 157.464844 186.863281 158.832031 185.347656 158.988281 C 183.835938 159.144531 182.515625 158.101562 181.699219 159.246094 Z M 181.699219 159.246094 " fill-opacity="1" fill-rule="nonzero"/><path fill="#ff9999" d="M 182.652344 162.066406 C 182.691406 162.078125 182.726562 162.089844 182.765625 162.097656 C 184.816406 162.609375 188.421875 161.722656 188.421875 161.722656 C 188.863281 161.457031 189.269531 161.144531 189.632812 160.777344 C 189.183594 159.738281 187.476562 159.265625 185.652344 159.714844 C 184.066406 160.105469 182.882812 161.078125 182.652344 162.066406 Z M 182.652344 162.066406 " fill-opacity="1" fill-rule="nonzero"/><path fill="#ff9999" d="M 191.757812 143.316406 C 191.757812 143.316406 191.195312 138.414062 192.835938 138.183594 C 194.480469 137.957031 196.507812 145.128906 196.417969 146.71875 C 196.417969 146.71875 194.492188 144.398438 191.757812 143.316406 Z M 191.757812 143.316406 " fill-opacity="1" fill-rule="nonzero"/><path fill="#ff9999" d="M 172.949219 147.964844 C 172.949219 147.964844 171.179688 143.363281 169.621094 143.925781 C 168.0625 144.488281 169.578125 151.789062 170.394531 153.15625 C 170.394531 153.15625 171.027344 150.203125 172.949219 147.964844 Z M 172.949219 147.964844 " fill-opacity="1" fill-rule="nonzero"/><path fill="#af7537" d="M 185.828125 159.808594 C 185.667969 159.609375 185.492188 159.429688 185.289062 159.277344 C 185.175781 159.167969 185.042969 159.136719 184.890625 159.171875 C 184.753906 159.210938 184.667969 159.273438 184.648438 159.414062 C 184.648438 159.464844 184.667969 159.503906 184.710938 159.53125 C 184.742188 159.550781 184.773438 159.5625 184.804688 159.582031 C 184.84375 159.613281 184.886719 159.640625 184.929688 159.667969 C 184.996094 159.699219 185.058594 159.742188 185.117188 159.792969 C 185.277344 159.925781 185.429688 160.070312 185.574219 160.226562 C 185.710938 160.375 185.839844 160.527344 185.960938 160.6875 C 186.085938 160.859375 186.203125 161.03125 186.335938 161.195312 C 186.371094 161.242188 186.464844 161.210938 186.457031 161.148438 C 186.375 160.640625 186.167969 160.191406 185.828125 159.808594 Z M 185.828125 159.808594 " fill-opacity="1" fill-rule="nonzero"/><path fill="#fff2a4" d="M 202.859375 155.324219 C 202.691406 155.207031 202.515625 155.085938 202.328125 154.964844 C 200.03125 153.433594 199.195312 151.78125 198.3125 150.03125 C 197.367188 148.160156 196.386719 146.226562 193.4375 144.398438 C 189.195312 141.769531 183.882812 142.53125 182.203125 142.863281 C 182.203125 142.863281 191.15625 142.050781 195.109375 146.75 C 198.613281 150.917969 198.074219 153.535156 202.386719 155.191406 C 202.539062 155.253906 202.695312 155.296875 202.859375 155.324219 Z M 202.859375 155.324219 " fill-opacity="1" fill-rule="nonzero"/><path fill="#edbd66" d="M 194.785156 145.128906 C 196.003906 146.101562 196.984375 147.28125 197.722656 148.660156 C 197.84375 144.683594 196.1875 140.261719 194.433594 137.625 C 194.511719 137.84375 197.539062 146.492188 194.785156 145.128906 Z M 194.785156 145.128906 " fill-opacity="1" fill-rule="nonzero"/><path fill="#e57a7a" d="M 195.9375 143.910156 C 195.964844 144.953125 195.679688 145.558594 194.785156 145.121094 C 195.363281 145.585938 195.890625 146.101562 196.371094 146.667969 L 196.417969 146.71875 C 196.445312 146.210938 196.257812 145.132812 195.9375 143.910156 Z M 195.9375 143.910156 " fill-opacity="1" fill-rule="nonzero"/><g clip-path="url(#f09fe1f59b)"><path fill="#af7537" d="M 202.511719 154.683594 C 200.289062 153.199219 199.472656 151.589844 198.609375 149.878906 C 198.417969 149.5 198.222656 149.113281 198.011719 148.726562 C 198.210938 143.28125 194.925781 136.234375 192.402344 135.113281 C 191.789062 134.839844 191.238281 134.925781 190.808594 135.355469 C 188.820312 137.347656 189.082031 141.613281 189.152344 142.425781 C 185.269531 141.703125 181.785156 142.601562 181.59375 142.652344 C 181.402344 142.703125 177.882812 143.527344 174.78125 145.984375 C 174.277344 144.867188 172.605469 141.5 170.140625 140.730469 C 169.546875 140.542969 169.003906 140.730469 168.570312 141.28125 C 166.808594 143.5 167.09375 151.058594 169.800781 155.742188 C 169.8125 155.761719 169.824219 155.777344 169.839844 155.792969 C 169.839844 156.203125 169.839844 156.59375 169.839844 156.992188 C 169.863281 158.90625 169.886719 160.714844 168.609375 163.0625 C 166.984375 166.039062 166.492188 168.023438 167.191406 168.808594 C 167.496094 169.148438 167.988281 169.214844 168.535156 168.984375 C 168.769531 168.886719 169 168.773438 169.21875 168.640625 C 169.175781 169.253906 169.253906 170.121094 169.996094 170.355469 C 170.863281 170.632812 171.597656 170.058594 171.871094 169.808594 C 172.753906 169.976562 177.433594 170.632812 187.699219 168.089844 C 198 165.542969 202.03125 162.730469 202.753906 162.167969 C 203.113281 162.269531 204.03125 162.441406 204.667969 161.789062 C 205.21875 161.238281 204.886719 160.425781 204.566406 159.90625 C 204.820312 159.917969 205.070312 159.914062 205.324219 159.894531 C 205.914062 159.839844 206.320312 159.554688 206.433594 159.113281 C 206.679688 158.089844 205.328125 156.558594 202.511719 154.683594 Z M 189.691406 142.5 C 189.691406 142.453125 189.207031 137.714844 191.179688 135.734375 C 191.457031 135.460938 191.765625 135.425781 192.179688 135.609375 C 194.21875 136.507812 197.320312 142.542969 197.476562 147.824219 C 196.675781 146.574219 195.5625 145.320312 193.613281 144.113281 C 192.394531 143.367188 191.085938 142.84375 189.691406 142.539062 C 189.691406 142.527344 189.691406 142.515625 189.691406 142.5 Z M 168.988281 141.621094 C 169.28125 141.25 169.605469 141.128906 169.980469 141.246094 C 172.3125 141.972656 173.957031 145.464844 174.339844 146.339844 C 173.25 147.257812 172.339844 148.328125 171.605469 149.554688 C 170.402344 151.589844 170.007812 153.253906 169.886719 154.773438 C 167.515625 150.019531 167.589844 143.378906 168.988281 141.621094 Z M 205.902344 158.976562 C 205.828125 159.273438 205.433594 159.339844 205.269531 159.355469 C 204.855469 159.390625 204.445312 159.375 204.035156 159.304688 C 203.914062 159.289062 203.824219 159.335938 203.761719 159.441406 C 203.699219 159.550781 203.707031 159.652344 203.785156 159.75 C 204.042969 160.046875 204.691406 160.984375 204.28125 161.40625 C 203.734375 161.964844 202.792969 161.617188 202.78125 161.617188 C 202.683594 161.578125 202.59375 161.59375 202.507812 161.660156 C 202.472656 161.691406 198.652344 164.820312 187.550781 167.570312 C 176.453125 170.320312 171.871094 169.265625 171.828125 169.253906 C 171.722656 169.230469 171.636719 169.257812 171.5625 169.335938 C 171.5625 169.347656 170.878906 170.089844 170.140625 169.851562 C 169.582031 169.671875 169.722656 168.535156 169.816406 168.152344 C 169.835938 168.03125 169.796875 167.933594 169.691406 167.867188 C 169.589844 167.800781 169.488281 167.804688 169.386719 167.875 C 169.054688 168.128906 168.699219 168.332031 168.320312 168.496094 C 168.164062 168.558594 167.785156 168.683594 167.582031 168.457031 C 167.445312 168.304688 166.875 167.339844 169.066406 163.332031 C 170.421875 160.859375 170.394531 158.890625 170.371094 156.992188 C 170.34375 154.917969 170.316406 152.777344 172.058594 149.832031 C 172.78125 148.628906 173.6875 147.582031 174.773438 146.695312 C 174.824219 146.671875 174.867188 146.636719 174.898438 146.589844 C 178.003906 144.054688 181.660156 143.1875 181.714844 143.175781 C 181.773438 143.164062 188.328125 141.46875 193.332031 144.570312 C 196.234375 146.367188 197.199219 148.28125 198.132812 150.125 C 198.988281 151.820312 199.875 153.570312 202.21875 155.132812 C 206.011719 157.660156 205.953125 158.78125 205.902344 158.976562 Z M 205.902344 158.976562 " fill-opacity="1" fill-rule="nonzero"/></g><path fill="#af7537" d="M 184.828125 155.898438 C 184.226562 156.046875 183.703125 156.035156 183.859375 156.65625 C 183.886719 156.804688 183.945312 156.945312 184.035156 157.070312 C 184.121094 157.195312 184.226562 157.300781 184.355469 157.382812 C 184.484375 157.464844 184.625 157.519531 184.777344 157.542969 C 184.925781 157.566406 185.078125 157.5625 185.226562 157.527344 C 185.375 157.488281 185.507812 157.425781 185.632812 157.332031 C 185.753906 157.242188 185.851562 157.128906 185.929688 156.996094 C 186.007812 156.863281 186.054688 156.722656 186.074219 156.570312 C 186.09375 156.417969 186.082031 156.269531 186.039062 156.121094 C 185.886719 155.492188 185.429688 155.75 184.828125 155.898438 Z M 184.828125 155.898438 " fill-opacity="1" fill-rule="nonzero"/><path fill="#af7537" d="M 191.445312 151.902344 C 190.964844 151.652344 190.460938 151.589844 189.933594 151.714844 C 189.667969 151.769531 189.429688 151.878906 189.210938 152.039062 C 189 152.199219 188.828125 152.390625 188.691406 152.613281 C 188.429688 153.042969 188.300781 153.511719 188.3125 154.015625 C 188.3125 154.03125 188.320312 154.042969 188.332031 154.046875 C 188.355469 154.054688 188.371094 154.050781 188.378906 154.027344 C 188.546875 153.613281 188.773438 153.230469 189.054688 152.882812 C 189.183594 152.722656 189.335938 152.589844 189.511719 152.484375 C 189.679688 152.378906 189.859375 152.304688 190.054688 152.265625 C 190.457031 152.171875 190.855469 152.195312 191.246094 152.339844 C 191.648438 152.507812 192 152.75 192.300781 153.070312 L 192.300781 153.074219 C 192.328125 153.101562 192.359375 153.109375 192.394531 153.09375 C 192.445312 153.070312 192.460938 153.035156 192.4375 152.984375 C 192.230469 152.507812 191.902344 152.148438 191.445312 151.902344 Z M 191.445312 151.902344 " fill-opacity="1" fill-rule="nonzero"/><path fill="#af7537" d="M 182.84375 156.4375 L 182.851562 156.429688 C 183.132812 156.21875 183.433594 156.046875 183.757812 155.914062 C 184.074219 155.777344 184.402344 155.671875 184.742188 155.59375 C 185.078125 155.511719 185.421875 155.449219 185.765625 155.40625 C 186.113281 155.355469 186.457031 155.367188 186.796875 155.4375 L 186.808594 155.4375 C 186.824219 155.441406 186.839844 155.4375 186.851562 155.425781 C 186.875 155.402344 186.875 155.382812 186.851562 155.359375 C 186.707031 155.214844 186.535156 155.117188 186.335938 155.058594 C 186.148438 155 185.957031 154.960938 185.761719 154.949219 C 185.371094 154.925781 184.988281 154.960938 184.613281 155.058594 C 184.226562 155.144531 183.871094 155.292969 183.539062 155.503906 C 183.195312 155.714844 182.929688 156 182.746094 156.359375 C 182.734375 156.382812 182.738281 156.402344 182.753906 156.425781 C 182.777344 156.460938 182.808594 156.464844 182.84375 156.4375 Z M 182.84375 156.4375 " fill-opacity="1" fill-rule="nonzero"/><path fill="#af7537" d="M 180.824219 155.910156 C 180.851562 155.929688 180.878906 155.933594 180.910156 155.917969 C 180.953125 155.894531 180.960938 155.859375 180.9375 155.816406 C 180.699219 155.371094 180.359375 155.023438 179.921875 154.773438 C 179.695312 154.640625 179.453125 154.558594 179.195312 154.519531 C 178.929688 154.484375 178.667969 154.5 178.410156 154.574219 C 177.890625 154.714844 177.480469 155.003906 177.179688 155.449219 C 176.890625 155.875 176.769531 156.34375 176.808594 156.855469 C 176.808594 156.871094 176.820312 156.882812 176.835938 156.890625 C 176.863281 156.898438 176.882812 156.890625 176.890625 156.863281 C 177.007812 156.429688 177.210938 156.046875 177.503906 155.707031 C 177.789062 155.394531 178.136719 155.1875 178.546875 155.085938 C 178.738281 155.03125 178.933594 155.015625 179.132812 155.035156 C 179.335938 155.054688 179.53125 155.105469 179.71875 155.1875 C 180.125 155.371094 180.492188 155.609375 180.824219 155.910156 Z M 180.824219 155.910156 " fill-opacity="1" fill-rule="nonzero"/><path fill="#af7537" d="M 188.199219 156.886719 C 187.664062 157.046875 187.277344 157.421875 186.898438 157.785156 C 186.734375 157.953125 186.558594 158.109375 186.375 158.253906 C 185.65625 158.804688 184.710938 158.96875 183.710938 158.703125 C 183.285156 158.589844 181.988281 158.246094 181.40625 159.390625 C 181.058594 160.070312 181.210938 160.988281 181.777344 161.617188 C 182.238281 162.128906 182.949219 162.460938 183.78125 162.554688 C 184.503906 162.636719 185.214844 162.542969 185.90625 162.453125 C 186.484375 162.386719 187.054688 162.289062 187.617188 162.160156 C 188.023438 162.0625 188.410156 161.925781 188.785156 161.746094 C 189.839844 161.238281 190.566406 160.363281 190.71875 159.40625 C 190.847656 158.664062 190.664062 158.011719 190.160156 157.449219 C 189.910156 157.183594 189.609375 157 189.257812 156.898438 C 188.90625 156.796875 188.554688 156.792969 188.199219 156.886719 Z M 190.191406 159.316406 C 190.0625 160.101562 189.449219 160.828125 188.546875 161.261719 C 187.710938 161.675781 186.753906 161.796875 185.832031 161.917969 C 185.171875 162.003906 184.492188 162.09375 183.835938 162.019531 C 183.132812 161.941406 182.542969 161.667969 182.167969 161.253906 C 181.757812 160.792969 181.632812 160.113281 181.878906 159.632812 C 181.996094 159.371094 182.195312 159.207031 182.476562 159.140625 C 182.75 159.074219 183.109375 159.101562 183.570312 159.222656 C 184.734375 159.53125 185.847656 159.339844 186.699219 158.683594 C 186.898438 158.523438 187.089844 158.355469 187.269531 158.171875 C 187.613281 157.839844 187.941406 157.523438 188.347656 157.402344 C 188.605469 157.335938 188.859375 157.339844 189.113281 157.414062 C 189.367188 157.484375 189.585938 157.621094 189.765625 157.816406 C 190.144531 158.25 190.285156 158.75 190.1875 159.316406 Z M 190.191406 159.316406 " fill-opacity="1" fill-rule="nonzero"/><path fill="#edbd66" d="M 185.199219 176.507812 C 185.199219 167.878906 191.628906 160.726562 199.917969 159.628906 C 199.710938 159.621094 199.496094 159.613281 199.285156 159.613281 C 198.730469 159.609375 198.179688 159.632812 197.628906 159.679688 C 197.074219 159.730469 196.527344 159.808594 195.984375 159.914062 C 195.4375 160.015625 194.902344 160.148438 194.371094 160.304688 C 193.839844 160.460938 193.316406 160.644531 192.804688 160.855469 C 192.289062 161.066406 191.789062 161.300781 191.296875 161.558594 C 190.808594 161.820312 190.332031 162.101562 189.867188 162.40625 C 189.40625 162.714844 188.960938 163.042969 188.53125 163.394531 C 188.101562 163.746094 187.6875 164.117188 187.292969 164.507812 C 186.902344 164.898438 186.527344 165.308594 186.175781 165.738281 C 185.820312 166.167969 185.488281 166.613281 185.179688 167.074219 C 184.871094 167.535156 184.585938 168.011719 184.324219 168.503906 C 184.058594 168.992188 183.820312 169.496094 183.609375 170.007812 C 183.394531 170.523438 183.207031 171.042969 183.046875 171.578125 C 182.882812 172.109375 182.75 172.648438 182.640625 173.195312 C 182.53125 173.738281 182.449219 174.289062 182.394531 174.84375 C 182.339844 175.398438 182.3125 175.953125 182.3125 176.507812 C 182.3125 177.066406 182.339844 177.621094 182.394531 178.175781 C 182.449219 178.726562 182.53125 179.277344 182.640625 179.824219 C 182.75 180.371094 182.882812 180.910156 183.046875 181.441406 C 183.207031 181.972656 183.394531 182.496094 183.609375 183.007812 C 183.820312 183.523438 184.058594 184.023438 184.324219 184.515625 C 184.585938 185.003906 184.871094 185.480469 185.179688 185.941406 C 185.488281 186.40625 185.820312 186.851562 186.175781 187.277344 C 186.527344 187.707031 186.902344 188.117188 187.292969 188.507812 C 187.6875 188.902344 188.101562 189.273438 188.53125 189.625 C 188.960938 189.972656 189.40625 190.304688 189.867188 190.609375 C 190.332031 190.917969 190.808594 191.199219 191.296875 191.457031 C 191.789062 191.71875 192.289062 191.953125 192.804688 192.160156 C 193.316406 192.371094 193.839844 192.554688 194.371094 192.710938 C 194.902344 192.871094 195.4375 193 195.984375 193.105469 C 196.527344 193.210938 197.074219 193.285156 197.628906 193.335938 C 198.179688 193.386719 198.730469 193.410156 199.285156 193.402344 C 199.496094 193.402344 199.710938 193.402344 199.921875 193.390625 C 191.621094 192.289062 185.199219 185.140625 185.199219 176.507812 Z M 185.199219 176.507812 " fill-opacity="1" fill-rule="nonzero"/><path fill="#edbd66" d="M 214.550781 176.507812 C 214.550781 177.324219 214.472656 178.136719 214.3125 178.9375 C 214.152344 179.738281 213.917969 180.519531 213.605469 181.273438 C 213.292969 182.03125 212.914062 182.746094 212.460938 183.425781 C 212.007812 184.105469 211.496094 184.738281 210.917969 185.316406 C 210.34375 185.894531 209.714844 186.410156 209.039062 186.863281 C 208.363281 187.316406 207.648438 187.703125 206.894531 188.015625 C 206.144531 188.328125 205.367188 188.5625 204.570312 188.722656 C 203.773438 188.882812 202.964844 188.960938 202.152344 188.960938 C 201.335938 188.960938 200.53125 188.882812 199.730469 188.722656 C 198.933594 188.5625 198.160156 188.328125 197.40625 188.015625 C 196.652344 187.703125 195.9375 187.316406 195.261719 186.863281 C 194.585938 186.410156 193.960938 185.894531 193.382812 185.316406 C 192.808594 184.738281 192.292969 184.105469 191.839844 183.425781 C 191.390625 182.746094 191.007812 182.03125 190.695312 181.273438 C 190.382812 180.519531 190.148438 179.738281 189.988281 178.9375 C 189.832031 178.136719 189.75 177.324219 189.75 176.507812 C 189.75 175.691406 189.832031 174.878906 189.988281 174.078125 C 190.148438 173.277344 190.382812 172.496094 190.695312 171.742188 C 191.007812 170.988281 191.390625 170.269531 191.839844 169.589844 C 192.292969 168.910156 192.808594 168.28125 193.382812 167.703125 C 193.960938 167.125 194.585938 166.605469 195.261719 166.152344 C 195.9375 165.699219 196.652344 165.316406 197.40625 165 C 198.160156 164.6875 198.933594 164.453125 199.730469 164.292969 C 200.53125 164.132812 201.335938 164.054688 202.152344 164.054688 C 202.964844 164.054688 203.773438 164.132812 204.570312 164.292969 C 205.367188 164.453125 206.144531 164.6875 206.894531 165 C 207.648438 165.316406 208.363281 165.699219 209.039062 166.152344 C 209.714844 166.605469 210.34375 167.125 210.917969 167.703125 C 211.496094 168.28125 212.007812 168.910156 212.460938 169.589844 C 212.914062 170.269531 213.292969 170.988281 213.605469 171.742188 C 213.917969 172.496094 214.152344 173.277344 214.3125 174.078125 C 214.472656 174.878906 214.550781 175.691406 214.550781 176.507812 Z M 214.550781 176.507812 " fill-opacity="1" fill-rule="nonzero"/><path fill="#ffdf7b" d="M 213.421875 177.039062 C 213.421875 177.820312 213.347656 178.597656 213.195312 179.363281 C 213.042969 180.132812 212.816406 180.878906 212.519531 181.601562 C 212.222656 182.324219 211.859375 183.011719 211.425781 183.664062 C 210.996094 184.3125 210.503906 184.917969 209.957031 185.46875 C 209.40625 186.023438 208.808594 186.519531 208.160156 186.953125 C 207.515625 187.386719 206.835938 187.753906 206.117188 188.054688 C 205.398438 188.355469 204.660156 188.582031 203.894531 188.734375 C 203.132812 188.886719 202.363281 188.960938 201.585938 188.960938 C 200.808594 188.960938 200.039062 188.886719 199.277344 188.734375 C 198.515625 188.582031 197.777344 188.355469 197.058594 188.054688 C 196.339844 187.753906 195.660156 187.386719 195.011719 186.953125 C 194.367188 186.519531 193.769531 186.023438 193.21875 185.46875 C 192.671875 184.917969 192.179688 184.3125 191.746094 183.664062 C 191.316406 183.011719 190.953125 182.324219 190.652344 181.601562 C 190.355469 180.878906 190.132812 180.132812 189.980469 179.363281 C 189.828125 178.597656 189.753906 177.820312 189.753906 177.039062 C 189.753906 176.253906 189.828125 175.480469 189.980469 174.710938 C 190.132812 173.945312 190.355469 173.199219 190.652344 172.476562 C 190.953125 171.753906 191.316406 171.066406 191.746094 170.414062 C 192.179688 169.761719 192.671875 169.160156 193.21875 168.605469 C 193.769531 168.054688 194.367188 167.558594 195.011719 167.125 C 195.660156 166.6875 196.339844 166.320312 197.058594 166.023438 C 197.777344 165.722656 198.515625 165.496094 199.277344 165.34375 C 200.039062 165.191406 200.808594 165.113281 201.585938 165.113281 C 202.363281 165.113281 203.132812 165.191406 203.894531 165.34375 C 204.660156 165.496094 205.398438 165.722656 206.117188 166.023438 C 206.835938 166.320312 207.515625 166.6875 208.160156 167.125 C 208.808594 167.558594 209.40625 168.054688 209.957031 168.605469 C 210.503906 169.160156 210.996094 169.761719 211.425781 170.414062 C 211.859375 171.066406 212.222656 171.753906 212.519531 172.476562 C 212.816406 173.199219 213.042969 173.945312 213.195312 174.710938 C 213.347656 175.480469 213.421875 176.253906 213.421875 177.039062 Z M 213.421875 177.039062 " fill-opacity="1" fill-rule="nonzero"/><path fill="#ffdf7b" d="M 218.078125 171.070312 C 217.671875 169.871094 217.132812 168.730469 216.46875 167.652344 C 215.449219 165.992188 214.179688 164.550781 212.660156 163.328125 C 211.144531 162.105469 209.464844 161.175781 207.628906 160.535156 C 207.226562 160.398438 206.820312 160.269531 206.40625 160.164062 C 206.011719 160.058594 205.613281 159.96875 205.207031 159.886719 C 204.25 159.710938 203.285156 159.621094 202.3125 159.613281 L 202.15625 159.613281 C 201.261719 159.617188 200.378906 159.6875 199.496094 159.832031 C 198.617188 159.976562 197.753906 160.1875 196.90625 160.46875 C 196.058594 160.75 195.238281 161.097656 194.449219 161.507812 C 193.65625 161.921875 192.902344 162.394531 192.183594 162.925781 C 191.46875 163.457031 190.796875 164.042969 190.171875 164.683594 C 189.546875 165.324219 188.976562 166.007812 188.460938 166.742188 C 187.945312 167.472656 187.492188 168.238281 187.097656 169.042969 C 186.703125 169.84375 186.375 170.675781 186.109375 171.53125 C 185.847656 172.386719 185.652344 173.257812 185.527344 174.144531 C 185.402344 175.03125 185.347656 175.925781 185.363281 176.820312 C 185.378906 177.714844 185.46875 178.605469 185.625 179.488281 C 185.78125 180.367188 186.003906 181.230469 186.300781 182.078125 C 186.59375 182.925781 186.949219 183.742188 187.375 184.53125 C 187.796875 185.320312 188.277344 186.070312 188.820312 186.78125 C 189.363281 187.492188 189.957031 188.15625 190.601562 188.773438 C 191.25 189.390625 191.941406 189.953125 192.675781 190.457031 C 193.011719 190.691406 193.359375 190.910156 193.710938 191.117188 C 194.078125 191.332031 194.453125 191.535156 194.84375 191.722656 C 196.59375 192.570312 198.4375 193.097656 200.371094 193.308594 C 202.300781 193.515625 204.214844 193.390625 206.105469 192.933594 C 207.335938 192.636719 208.515625 192.203125 209.644531 191.632812 C 210.546875 191.183594 211.40625 190.652344 212.214844 190.046875 C 213.023438 189.4375 213.773438 188.765625 214.460938 188.023438 C 215.148438 187.28125 215.765625 186.484375 216.308594 185.628906 C 216.855469 184.773438 217.320312 183.878906 217.703125 182.941406 C 218.089844 182.003906 218.386719 181.039062 218.601562 180.046875 C 218.8125 179.054688 218.933594 178.054688 218.964844 177.039062 C 218.996094 176.027344 218.941406 175.015625 218.792969 174.015625 C 218.640625 173.011719 218.40625 172.03125 218.082031 171.070312 Z M 208.351562 187.453125 C 207.449219 187.96875 206.5 188.363281 205.5 188.640625 C 204.5 188.917969 203.484375 189.070312 202.449219 189.09375 C 201.410156 189.117188 200.386719 189.015625 199.375 188.78125 C 198.367188 188.550781 197.398438 188.199219 196.476562 187.726562 C 196.09375 187.53125 195.722656 187.316406 195.363281 187.078125 C 195.015625 186.855469 194.679688 186.613281 194.355469 186.351562 C 193.851562 185.949219 193.378906 185.507812 192.941406 185.03125 C 192.5 184.554688 192.101562 184.046875 191.742188 183.507812 C 191.382812 182.96875 191.066406 182.40625 190.792969 181.816406 C 190.519531 181.230469 190.292969 180.621094 190.113281 180 C 189.933594 179.375 189.800781 178.742188 189.71875 178.097656 C 189.636719 177.453125 189.605469 176.808594 189.621094 176.160156 C 189.636719 175.511719 189.707031 174.867188 189.820312 174.226562 C 189.9375 173.589844 190.101562 172.964844 190.316406 172.351562 C 190.53125 171.738281 190.789062 171.144531 191.09375 170.570312 C 191.398438 170 191.742188 169.453125 192.132812 168.933594 C 192.519531 168.414062 192.945312 167.929688 193.410156 167.476562 C 193.875 167.023438 194.367188 166.609375 194.894531 166.234375 C 195.421875 165.859375 195.976562 165.527344 196.554688 165.238281 C 197.132812 164.949219 197.730469 164.703125 198.34375 164.507812 C 198.960938 164.3125 199.589844 164.164062 200.226562 164.0625 C 200.867188 163.964844 201.507812 163.914062 202.15625 163.917969 C 202.617188 163.914062 203.074219 163.941406 203.53125 163.992188 C 204.371094 164.085938 205.191406 164.261719 205.992188 164.523438 C 207.152344 164.898438 208.234375 165.429688 209.238281 166.121094 C 210.242188 166.808594 211.128906 167.628906 211.894531 168.578125 C 212.660156 169.527344 213.277344 170.566406 213.742188 171.695312 C 214.207031 172.824219 214.503906 174 214.628906 175.214844 C 214.753906 176.429688 214.703125 177.640625 214.476562 178.839844 C 214.25 180.042969 213.859375 181.183594 213.304688 182.273438 C 212.746094 183.359375 212.046875 184.34375 211.203125 185.222656 C 210.359375 186.105469 209.410156 186.847656 208.351562 187.453125 Z M 208.351562 187.453125 " fill-opacity="1" fill-rule="nonzero"/><path fill="#eec373" d="M 202.15625 163.921875 C 201.332031 163.921875 200.515625 164 199.710938 164.164062 C 198.902344 164.324219 198.117188 164.5625 197.359375 164.878906 C 196.597656 165.195312 195.875 165.582031 195.191406 166.042969 C 194.507812 166.5 193.875 167.023438 193.292969 167.609375 C 192.710938 168.191406 192.191406 168.828125 191.734375 169.515625 C 191.277344 170.203125 190.890625 170.929688 190.574219 171.691406 C 190.261719 172.457031 190.023438 173.242188 189.863281 174.054688 C 189.703125 174.863281 189.621094 175.683594 189.621094 176.511719 C 189.621094 177.335938 189.703125 178.15625 189.863281 178.964844 C 190.023438 179.777344 190.261719 180.5625 190.578125 181.328125 C 190.890625 182.089844 191.277344 182.816406 191.734375 183.503906 C 192.191406 184.191406 192.710938 184.828125 193.292969 185.410156 C 193.875 185.996094 194.507812 186.519531 195.191406 186.976562 C 195.878906 187.4375 196.597656 187.824219 197.359375 188.140625 C 198.121094 188.457031 198.902344 188.695312 199.710938 188.855469 C 200.519531 189.019531 201.332031 189.097656 202.15625 189.097656 C 202.980469 189.097656 203.792969 189.019531 204.601562 188.855469 C 205.410156 188.695312 206.191406 188.457031 206.953125 188.140625 C 207.710938 187.824219 208.433594 187.433594 209.121094 186.976562 C 209.804688 186.515625 210.4375 185.996094 211.019531 185.410156 C 211.601562 184.824219 212.121094 184.191406 212.578125 183.503906 C 213.035156 182.816406 213.421875 182.089844 213.734375 181.324219 C 214.050781 180.5625 214.289062 179.773438 214.449219 178.964844 C 214.609375 178.152344 214.6875 177.335938 214.6875 176.507812 C 214.6875 175.683594 214.605469 174.863281 214.445312 174.054688 C 214.285156 173.242188 214.046875 172.457031 213.730469 171.691406 C 213.414062 170.929688 213.027344 170.203125 212.570312 169.519531 C 212.113281 168.832031 211.59375 168.195312 211.011719 167.609375 C 210.433594 167.027344 209.800781 166.503906 209.113281 166.046875 C 208.429688 165.585938 207.710938 165.199219 206.949219 164.882812 C 206.1875 164.566406 205.40625 164.328125 204.597656 164.164062 C 203.792969 164.003906 202.976562 163.921875 202.15625 163.921875 Z M 202.15625 188.964844 C 201.339844 188.964844 200.535156 188.882812 199.734375 188.722656 C 198.9375 188.566406 198.164062 188.328125 197.410156 188.015625 C 196.65625 187.703125 195.945312 187.320312 195.265625 186.863281 C 194.589844 186.410156 193.964844 185.894531 193.386719 185.316406 C 192.8125 184.738281 192.296875 184.109375 191.84375 183.429688 C 191.394531 182.75 191.011719 182.03125 190.699219 181.277344 C 190.386719 180.519531 190.152344 179.742188 189.996094 178.9375 C 189.835938 178.136719 189.757812 177.328125 189.757812 176.507812 C 189.757812 175.691406 189.835938 174.882812 189.996094 174.078125 C 190.152344 173.277344 190.386719 172.5 190.699219 171.742188 C 191.011719 170.988281 191.394531 170.269531 191.84375 169.589844 C 192.296875 168.910156 192.8125 168.28125 193.386719 167.703125 C 193.964844 167.125 194.589844 166.609375 195.265625 166.152344 C 195.945312 165.699219 196.65625 165.316406 197.410156 165.003906 C 198.164062 164.691406 198.9375 164.453125 199.734375 164.292969 C 200.535156 164.136719 201.339844 164.054688 202.15625 164.054688 C 202.96875 164.054688 203.777344 164.136719 204.574219 164.292969 C 205.371094 164.453125 206.148438 164.691406 206.898438 165.003906 C 207.652344 165.316406 208.367188 165.699219 209.042969 166.152344 C 209.722656 166.609375 210.347656 167.125 210.921875 167.703125 C 211.5 168.28125 212.011719 168.910156 212.464844 169.589844 C 212.917969 170.269531 213.300781 170.988281 213.609375 171.742188 C 213.921875 172.5 214.15625 173.277344 214.316406 174.078125 C 214.476562 174.882812 214.554688 175.691406 214.554688 176.507812 C 214.554688 177.328125 214.472656 178.136719 214.3125 178.9375 C 214.15625 179.738281 213.917969 180.519531 213.605469 181.273438 C 213.296875 182.027344 212.914062 182.746094 212.460938 183.425781 C 212.007812 184.105469 211.496094 184.734375 210.917969 185.3125 C 210.34375 185.890625 209.71875 186.40625 209.039062 186.859375 C 208.363281 187.316406 207.648438 187.699219 206.898438 188.011719 C 206.144531 188.324219 205.371094 188.5625 204.574219 188.722656 C 203.773438 188.882812 202.96875 188.964844 202.15625 188.964844 Z M 202.15625 188.964844 " fill-opacity="1" fill-rule="nonzero"/><path fill="#fff2a4" d="M 194.355469 186.351562 L 192.675781 190.453125 C 191.871094 189.902344 191.121094 189.285156 190.425781 188.605469 L 192.234375 184.191406 C 192.855469 184.996094 193.5625 185.71875 194.355469 186.351562 Z M 194.355469 186.351562 " fill-opacity="1" fill-rule="nonzero"/><path fill="#fff2a4" d="M 205.210938 159.894531 L 203.523438 163.996094 C 203.066406 163.945312 202.605469 163.921875 202.148438 163.921875 C 201.597656 163.921875 201.050781 163.957031 200.503906 164.027344 L 202.3125 159.613281 C 203.289062 159.625 204.253906 159.714844 205.210938 159.894531 Z M 205.210938 159.894531 " fill-opacity="1" fill-rule="nonzero"/><path fill="#fff2a4" d="M 218.078125 171.070312 L 209.640625 191.632812 C 208.511719 192.203125 207.332031 192.636719 206.101562 192.933594 L 208.351562 187.453125 C 208.953125 187.109375 209.523438 186.714844 210.0625 186.277344 C 210.601562 185.835938 211.097656 185.355469 211.558594 184.832031 C 212.015625 184.308594 212.425781 183.753906 212.792969 183.160156 C 213.160156 182.570312 213.476562 181.949219 213.738281 181.308594 C 214.003906 180.664062 214.214844 180 214.367188 179.324219 C 214.523438 178.644531 214.621094 177.957031 214.664062 177.261719 C 214.703125 176.566406 214.6875 175.871094 214.613281 175.179688 C 214.539062 174.484375 214.410156 173.804688 214.226562 173.132812 L 216.46875 167.660156 C 217.132812 168.734375 217.667969 169.871094 218.078125 171.070312 Z M 218.078125 171.070312 " fill-opacity="1" fill-rule="nonzero"/><path fill="#fff2a4" d="M 196.476562 187.726562 L 194.832031 191.710938 C 194.449219 191.527344 194.070312 191.328125 193.703125 191.105469 L 195.355469 187.074219 C 195.71875 187.3125 196.089844 187.53125 196.476562 187.726562 Z M 196.476562 187.726562 " fill-opacity="1" fill-rule="nonzero"/><path fill="#fff2a4" d="M 207.628906 160.535156 L 205.984375 164.527344 C 205.578125 164.394531 205.164062 164.28125 204.746094 164.195312 L 206.398438 160.164062 C 206.824219 160.269531 207.230469 160.394531 207.628906 160.535156 Z M 207.628906 160.535156 " fill-opacity="1" fill-rule="nonzero"/><path fill="#af7537" d="M 202.15625 163.71875 C 201.320312 163.71875 200.492188 163.800781 199.671875 163.964844 C 198.851562 164.128906 198.054688 164.371094 197.28125 164.691406 C 196.507812 165.011719 195.777344 165.40625 195.082031 165.875 C 194.386719 166.339844 193.742188 166.871094 193.152344 167.464844 C 192.558594 168.058594 192.03125 168.707031 191.566406 169.402344 C 191.101562 170.101562 190.710938 170.839844 190.390625 171.613281 C 190.070312 172.390625 189.828125 173.191406 189.664062 174.015625 C 189.503906 174.839844 189.421875 175.671875 189.421875 176.511719 C 189.421875 177.351562 189.503906 178.179688 189.664062 179.003906 C 189.828125 179.828125 190.070312 180.628906 190.390625 181.40625 C 190.710938 182.179688 191.101562 182.917969 191.566406 183.617188 C 192.03125 184.316406 192.558594 184.960938 193.152344 185.554688 C 193.742188 186.148438 194.386719 186.679688 195.082031 187.144531 C 195.777344 187.613281 196.511719 188.003906 197.28125 188.328125 C 198.054688 188.648438 198.851562 188.890625 199.671875 189.054688 C 200.492188 189.21875 201.320312 189.300781 202.15625 189.300781 C 202.992188 189.300781 203.820312 189.21875 204.640625 189.054688 C 205.460938 188.890625 206.257812 188.648438 207.03125 188.328125 C 207.800781 188.003906 208.535156 187.609375 209.230469 187.144531 C 209.925781 186.675781 210.570312 186.148438 211.160156 185.554688 C 211.75 184.960938 212.28125 184.3125 212.742188 183.613281 C 213.207031 182.917969 213.601562 182.179688 213.921875 181.402344 C 214.242188 180.628906 214.480469 179.828125 214.644531 179.003906 C 214.808594 178.179688 214.890625 177.347656 214.890625 176.507812 C 214.886719 175.667969 214.804688 174.835938 214.644531 174.015625 C 214.480469 173.191406 214.238281 172.390625 213.917969 171.617188 C 213.597656 170.839844 213.203125 170.101562 212.738281 169.40625 C 212.273438 168.707031 211.746094 168.0625 211.15625 167.46875 C 210.566406 166.875 209.921875 166.34375 209.226562 165.878906 C 208.53125 165.410156 207.796875 165.015625 207.027344 164.695312 C 206.253906 164.375 205.457031 164.128906 204.636719 163.964844 C 203.820312 163.800781 202.992188 163.71875 202.15625 163.71875 Z M 202.15625 188.761719 C 201.355469 188.761719 200.5625 188.683594 199.777344 188.523438 C 198.988281 188.367188 198.226562 188.136719 197.488281 187.828125 C 196.746094 187.519531 196.042969 187.140625 195.378906 186.695312 C 194.710938 186.25 194.097656 185.742188 193.53125 185.171875 C 192.964844 184.601562 192.457031 183.984375 192.011719 183.316406 C 191.566406 182.644531 191.191406 181.941406 190.886719 181.195312 C 190.578125 180.453125 190.347656 179.6875 190.191406 178.898438 C 190.035156 178.109375 189.957031 177.3125 189.957031 176.507812 C 189.957031 175.703125 190.035156 174.90625 190.191406 174.117188 C 190.347656 173.328125 190.578125 172.5625 190.886719 171.820312 C 191.191406 171.074219 191.566406 170.371094 192.011719 169.699219 C 192.457031 169.03125 192.964844 168.414062 193.53125 167.84375 C 194.097656 167.277344 194.710938 166.769531 195.378906 166.320312 C 196.042969 165.875 196.746094 165.496094 197.488281 165.1875 C 198.226562 164.878906 198.988281 164.648438 199.777344 164.492188 C 200.5625 164.335938 201.355469 164.253906 202.15625 164.253906 C 202.957031 164.253906 203.75 164.335938 204.535156 164.492188 C 205.320312 164.648438 206.082031 164.878906 206.824219 165.1875 C 207.5625 165.496094 208.265625 165.875 208.933594 166.320312 C 209.597656 166.769531 210.214844 167.277344 210.78125 167.84375 C 211.347656 168.414062 211.851562 169.03125 212.296875 169.699219 C 212.742188 170.371094 213.117188 171.074219 213.425781 171.820312 C 213.730469 172.5625 213.960938 173.328125 214.117188 174.117188 C 214.273438 174.90625 214.351562 175.703125 214.351562 176.507812 C 214.351562 177.3125 214.273438 178.109375 214.117188 178.898438 C 213.960938 179.6875 213.726562 180.453125 213.421875 181.195312 C 213.113281 181.9375 212.738281 182.644531 212.292969 183.3125 C 211.847656 183.980469 211.34375 184.597656 210.777344 185.167969 C 210.210938 185.738281 209.59375 186.246094 208.929688 186.691406 C 208.261719 187.136719 207.5625 187.515625 206.820312 187.824219 C 206.082031 188.132812 205.320312 188.367188 204.535156 188.523438 C 203.75 188.679688 202.957031 188.757812 202.15625 188.761719 Z M 202.15625 188.761719 " fill-opacity="1" fill-rule="nonzero"/><path fill="#af7537" d="M 202.15625 159.28125 C 201.585938 159.28125 201.023438 159.308594 200.46875 159.363281 C 200.429688 159.335938 200.382812 159.316406 200.332031 159.3125 C 199.992188 159.292969 199.640625 159.28125 199.296875 159.28125 C 198.730469 159.277344 198.167969 159.300781 197.605469 159.351562 C 197.042969 159.402344 196.480469 159.480469 195.925781 159.585938 C 195.371094 159.691406 194.824219 159.824219 194.28125 159.988281 C 193.738281 160.148438 193.207031 160.335938 192.683594 160.546875 C 192.160156 160.761719 191.648438 161 191.148438 161.265625 C 190.648438 161.53125 190.164062 161.820312 189.691406 162.132812 C 189.21875 162.445312 188.765625 162.78125 188.324219 163.136719 C 187.886719 163.496094 187.46875 163.875 187.066406 164.273438 C 186.664062 164.671875 186.285156 165.089844 185.921875 165.527344 C 185.5625 165.964844 185.226562 166.421875 184.910156 166.890625 C 184.59375 167.363281 184.300781 167.847656 184.035156 168.347656 C 183.765625 168.847656 183.523438 169.359375 183.308594 169.882812 C 183.089844 170.40625 182.898438 170.941406 182.734375 171.484375 C 182.570312 172.027344 182.429688 172.574219 182.320312 173.132812 C 182.207031 173.6875 182.125 174.25 182.070312 174.8125 C 182.015625 175.378906 181.984375 175.945312 181.984375 176.511719 C 181.984375 177.082031 182.015625 177.648438 182.070312 178.210938 C 182.125 178.777344 182.207031 179.335938 182.320312 179.894531 C 182.429688 180.449219 182.570312 181 182.734375 181.542969 C 182.898438 182.085938 183.089844 182.617188 183.308594 183.144531 C 183.523438 183.667969 183.765625 184.179688 184.035156 184.679688 C 184.300781 185.179688 184.59375 185.664062 184.910156 186.132812 C 185.226562 186.605469 185.5625 187.058594 185.921875 187.496094 C 186.285156 187.933594 186.664062 188.351562 187.066406 188.753906 C 187.46875 189.152344 187.886719 189.53125 188.324219 189.886719 C 188.765625 190.246094 189.21875 190.582031 189.691406 190.894531 C 190.164062 191.207031 190.648438 191.496094 191.148438 191.761719 C 191.648438 192.023438 192.160156 192.265625 192.683594 192.476562 C 193.207031 192.691406 193.738281 192.878906 194.28125 193.039062 C 194.824219 193.199219 195.371094 193.332031 195.925781 193.441406 C 196.480469 193.546875 197.042969 193.625 197.605469 193.675781 C 198.167969 193.726562 198.730469 193.75 199.296875 193.746094 C 199.757812 193.746094 200.21875 193.726562 200.675781 193.691406 L 200.714844 193.683594 C 201.191406 193.722656 201.671875 193.746094 202.160156 193.746094 C 202.726562 193.75 203.289062 193.726562 203.851562 193.675781 C 204.414062 193.625 204.972656 193.546875 205.527344 193.4375 C 206.085938 193.332031 206.632812 193.199219 207.175781 193.039062 C 207.714844 192.878906 208.25 192.691406 208.773438 192.476562 C 209.296875 192.261719 209.808594 192.023438 210.308594 191.757812 C 210.808594 191.496094 211.292969 191.207031 211.765625 190.894531 C 212.238281 190.578125 212.691406 190.246094 213.128906 189.886719 C 213.570312 189.527344 213.988281 189.148438 214.390625 188.75 C 214.792969 188.351562 215.171875 187.933594 215.53125 187.496094 C 215.890625 187.058594 216.230469 186.601562 216.546875 186.132812 C 216.859375 185.660156 217.152344 185.175781 217.421875 184.675781 C 217.6875 184.175781 217.929688 183.664062 218.148438 183.140625 C 218.363281 182.617188 218.554688 182.082031 218.722656 181.539062 C 218.886719 180.996094 219.023438 180.449219 219.132812 179.890625 C 219.246094 179.335938 219.328125 178.773438 219.382812 178.207031 C 219.441406 177.644531 219.46875 177.078125 219.46875 176.511719 C 219.46875 175.941406 219.4375 175.375 219.382812 174.8125 C 219.328125 174.246094 219.246094 173.6875 219.132812 173.128906 C 219.023438 172.574219 218.882812 172.023438 218.71875 171.480469 C 218.554688 170.9375 218.363281 170.402344 218.144531 169.878906 C 217.929688 169.355469 217.683594 168.84375 217.417969 168.34375 C 217.148438 167.84375 216.859375 167.359375 216.542969 166.890625 C 216.226562 166.417969 215.890625 165.964844 215.527344 165.527344 C 215.167969 165.089844 214.789062 164.671875 214.386719 164.273438 C 213.984375 163.871094 213.566406 163.492188 213.125 163.136719 C 212.6875 162.777344 212.230469 162.441406 211.761719 162.128906 C 211.289062 161.816406 210.804688 161.527344 210.304688 161.265625 C 209.804688 161 209.292969 160.761719 208.769531 160.546875 C 208.242188 160.332031 207.710938 160.148438 207.167969 159.984375 C 206.628906 159.824219 206.078125 159.691406 205.523438 159.585938 C 204.96875 159.480469 204.410156 159.402344 203.847656 159.351562 C 203.285156 159.300781 202.71875 159.277344 202.15625 159.28125 Z M 182.667969 176.507812 C 182.667969 167.890625 189.203125 160.777344 197.554688 159.90625 C 196.660156 160.15625 195.789062 160.480469 194.941406 160.871094 C 194.097656 161.265625 193.289062 161.722656 192.519531 162.25 C 191.75 162.773438 191.027344 163.359375 190.351562 164 C 189.675781 164.644531 189.054688 165.339844 188.492188 166.082031 C 187.929688 166.828125 187.429688 167.613281 186.992188 168.4375 C 186.558594 169.265625 186.191406 170.121094 185.894531 171.007812 C 185.597656 171.894531 185.371094 172.800781 185.222656 173.722656 C 185.070312 174.644531 184.996094 175.574219 184.996094 176.507812 C 184.996094 177.445312 185.070312 178.371094 185.222656 179.296875 C 185.371094 180.21875 185.597656 181.125 185.894531 182.007812 C 186.191406 182.894531 186.558594 183.75 186.992188 184.578125 C 187.429688 185.40625 187.929688 186.191406 188.492188 186.933594 C 189.054688 187.679688 189.675781 188.371094 190.351562 189.015625 C 191.027344 189.660156 191.75 190.242188 192.519531 190.769531 C 193.289062 191.292969 194.097656 191.753906 194.941406 192.144531 C 195.789062 192.539062 196.660156 192.859375 197.554688 193.109375 C 196.542969 193.003906 195.550781 192.804688 194.574219 192.511719 C 193.597656 192.222656 192.65625 191.84375 191.75 191.378906 C 190.84375 190.914062 189.984375 190.371094 189.175781 189.75 C 188.371094 189.125 187.625 188.433594 186.945312 187.675781 C 186.261719 186.914062 185.65625 186.101562 185.121094 185.226562 C 184.589844 184.355469 184.140625 183.445312 183.777344 182.488281 C 183.410156 181.535156 183.132812 180.554688 182.949219 179.550781 C 182.761719 178.542969 182.667969 177.53125 182.667969 176.507812 Z M 202.15625 193.203125 C 201.609375 193.203125 201.066406 193.175781 200.527344 193.121094 C 199.984375 193.066406 199.445312 192.988281 198.914062 192.882812 C 198.378906 192.773438 197.851562 192.644531 197.332031 192.484375 C 196.808594 192.324219 196.296875 192.140625 195.792969 191.933594 C 195.292969 191.722656 194.800781 191.488281 194.320312 191.230469 C 193.839844 190.976562 193.375 190.695312 192.921875 190.390625 C 192.46875 190.085938 192.03125 189.761719 191.609375 189.414062 C 191.191406 189.066406 190.785156 188.703125 190.402344 188.316406 C 190.015625 187.929688 189.652344 187.523438 189.304688 187.101562 C 188.960938 186.679688 188.636719 186.238281 188.335938 185.785156 C 188.03125 185.332031 187.75 184.863281 187.496094 184.378906 C 187.238281 183.898438 187.007812 183.40625 186.796875 182.898438 C 186.589844 182.394531 186.40625 181.878906 186.246094 181.355469 C 186.089844 180.832031 185.957031 180.304688 185.851562 179.769531 C 185.746094 179.230469 185.664062 178.691406 185.613281 178.148438 C 185.558594 177.601562 185.53125 177.058594 185.53125 176.511719 C 185.53125 175.964844 185.558594 175.417969 185.609375 174.875 C 185.664062 174.332031 185.742188 173.789062 185.851562 173.253906 C 185.957031 172.71875 186.089844 172.1875 186.246094 171.664062 C 186.402344 171.140625 186.585938 170.628906 186.796875 170.121094 C 187.003906 169.617188 187.234375 169.121094 187.492188 168.640625 C 187.75 168.160156 188.027344 167.691406 188.332031 167.234375 C 188.632812 166.78125 188.957031 166.34375 189.300781 165.917969 C 189.648438 165.496094 190.011719 165.09375 190.398438 164.707031 C 190.78125 164.320312 191.183594 163.953125 191.605469 163.605469 C 192.027344 163.257812 192.464844 162.933594 192.917969 162.628906 C 193.367188 162.324219 193.835938 162.042969 194.316406 161.785156 C 194.796875 161.527344 195.285156 161.296875 195.789062 161.085938 C 196.292969 160.875 196.804688 160.691406 197.324219 160.535156 C 197.847656 160.375 198.375 160.242188 198.90625 160.136719 C 199.441406 160.027344 199.980469 159.949219 200.519531 159.894531 C 201.0625 159.839844 201.605469 159.816406 202.148438 159.8125 C 202.695312 159.8125 203.238281 159.839844 203.777344 159.894531 C 204.320312 159.949219 204.859375 160.027344 205.390625 160.136719 C 205.925781 160.242188 206.453125 160.375 206.972656 160.53125 C 207.496094 160.691406 208.007812 160.875 208.511719 161.085938 C 209.011719 161.292969 209.503906 161.527344 209.984375 161.785156 C 210.464844 162.042969 210.929688 162.324219 211.382812 162.628906 C 211.835938 162.929688 212.273438 163.257812 212.695312 163.601562 C 213.113281 163.949219 213.519531 164.316406 213.902344 164.703125 C 214.289062 165.089844 214.652344 165.496094 214.996094 165.917969 C 215.34375 166.339844 215.667969 166.777344 215.96875 167.234375 C 216.273438 167.6875 216.550781 168.15625 216.808594 168.636719 C 217.066406 169.121094 217.296875 169.613281 217.503906 170.121094 C 217.714844 170.625 217.898438 171.140625 218.054688 171.660156 C 218.214844 172.183594 218.34375 172.714844 218.453125 173.25 C 218.558594 173.789062 218.636719 174.328125 218.691406 174.871094 C 218.746094 175.414062 218.769531 175.960938 218.769531 176.507812 C 218.769531 177.054688 218.742188 177.601562 218.6875 178.144531 C 218.636719 178.6875 218.554688 179.226562 218.449219 179.761719 C 218.34375 180.300781 218.210938 180.828125 218.050781 181.351562 C 217.894531 181.875 217.710938 182.386719 217.5 182.894531 C 217.292969 183.398438 217.058594 183.890625 216.804688 184.371094 C 216.546875 184.855469 216.269531 185.324219 215.964844 185.777344 C 215.664062 186.230469 215.339844 186.667969 214.992188 187.09375 C 214.648438 187.515625 214.285156 187.917969 213.898438 188.304688 C 213.515625 188.691406 213.113281 189.058594 212.691406 189.40625 C 212.269531 189.753906 211.835938 190.078125 211.382812 190.382812 C 210.929688 190.683594 210.464844 190.964844 209.984375 191.222656 C 209.503906 191.480469 209.015625 191.714844 208.511719 191.925781 C 208.007812 192.132812 207.496094 192.320312 206.976562 192.476562 C 206.457031 192.636719 205.929688 192.769531 205.394531 192.878906 C 204.863281 192.984375 204.324219 193.066406 203.785156 193.121094 C 203.242188 193.171875 202.699219 193.199219 202.15625 193.203125 Z M 202.15625 193.203125 " fill-opacity="1" fill-rule="nonzero"/><path fill="#af7537" d="M 203.816406 175.1875 L 203.859375 170.828125 C 204.59375 170.867188 205.3125 170.992188 206.015625 171.203125 C 206.542969 171.367188 207.144531 171.179688 207.34375 170.78125 L 207.363281 170.746094 C 207.554688 170.363281 207.304688 169.941406 206.800781 169.785156 C 205.851562 169.503906 204.882812 169.359375 203.894531 169.347656 L 203.894531 167.902344 C 203.894531 167.527344 203.492188 167.226562 202.992188 167.226562 L 202.984375 167.226562 C 202.488281 167.226562 202.085938 167.523438 202.082031 167.898438 L 202.0625 169.4375 C 199.398438 169.773438 197.6875 171.144531 197.6875 172.953125 C 197.6875 174.761719 199.3125 175.738281 201.980469 176.578125 L 201.925781 181.46875 C 200.96875 181.429688 200.035156 181.257812 199.128906 180.953125 C 198.570312 180.765625 197.921875 180.953125 197.714844 181.390625 C 197.539062 181.761719 197.761719 182.179688 198.238281 182.355469 C 199.421875 182.75 200.636719 182.953125 201.882812 182.964844 L 201.882812 184.484375 C 201.882812 184.863281 202.292969 185.171875 202.800781 185.171875 C 203.304688 185.171875 203.714844 184.867188 203.71875 184.484375 L 203.734375 182.890625 C 206.71875 182.511719 208.3125 180.898438 208.3125 179.179688 C 208.324219 177.242188 206.808594 176.101562 203.816406 175.1875 Z M 202.007812 174.550781 C 200.753906 174.03125 200.195312 173.507812 200.195312 172.691406 C 200.195312 172.003906 200.722656 171.230469 202.046875 170.9375 Z M 203.757812 181.3125 L 203.796875 177.199219 C 205.105469 177.746094 205.789062 178.40625 205.789062 179.335938 C 205.789062 180.265625 205.011719 181 203.757812 181.3125 Z M 203.757812 181.3125 " fill-opacity="1" fill-rule="nonzero"/><path fill="#fffbf0" d="M 210.703125 165.242188 C 211.484375 165.878906 212.457031 166.375 213.457031 166.269531 C 214.648438 166.136719 215.640625 165.121094 215.910156 163.949219 C 216.175781 162.777344 215.792969 161.515625 215.050781 160.570312 C 214.3125 159.625 213.25 158.972656 212.128906 158.550781 C 210.761719 158.035156 208.144531 157.925781 207.898438 159.910156 C 207.664062 161.785156 209.363281 164.148438 210.703125 165.242188 Z M 210.703125 165.242188 " fill-opacity="1" fill-rule="nonzero"/><path fill="#eae2ce" d="M 215.050781 160.570312 C 214.3125 159.625 213.25 158.972656 212.128906 158.550781 C 211.621094 158.367188 211.09375 158.261719 210.550781 158.238281 C 211.59375 158.730469 212.578125 159.417969 213.269531 160.347656 C 213.980469 161.308594 214.367188 162.546875 214.132812 163.714844 C 213.929688 164.773438 213.164062 165.742188 212.15625 166.09375 C 212.574219 166.25 213.011719 166.308594 213.457031 166.269531 C 214.648438 166.136719 215.640625 165.121094 215.910156 163.949219 C 216.175781 162.777344 215.792969 161.515625 215.050781 160.570312 Z M 215.050781 160.570312 " fill-opacity="1" fill-rule="nonzero"/><path fill="#af7537" d="M 214.800781 166.136719 C 214.40625 166.40625 213.972656 166.570312 213.496094 166.625 C 212.277344 166.761719 211.183594 166.097656 210.476562 165.523438 C 209.199219 164.480469 207.277344 162.019531 207.542969 159.871094 C 207.613281 159.183594 207.941406 158.660156 208.535156 158.308594 C 209.574219 157.675781 211.191406 157.816406 212.257812 158.21875 C 213.582031 158.71875 214.613281 159.433594 215.332031 160.351562 C 216.1875 161.449219 216.535156 162.824219 216.257812 164.03125 C 216.046875 164.925781 215.558594 165.628906 214.800781 166.136719 Z M 210.925781 164.960938 C 211.527344 165.453125 212.445312 166.015625 213.421875 165.910156 C 214.414062 165.804688 215.3125 164.949219 215.558594 163.867188 C 215.789062 162.867188 215.496094 161.714844 214.769531 160.792969 C 214.132812 159.980469 213.203125 159.339844 212.003906 158.886719 C 211.089844 158.542969 209.695312 158.4375 208.902344 158.917969 C 208.507812 159.152344 208.292969 159.496094 208.253906 159.953125 C 208.035156 161.699219 209.722656 163.976562 210.925781 164.960938 Z M 210.925781 164.960938 " fill-opacity="1" fill-rule="nonzero"/><g clip-path="url(#e625ba9e90)"><path fill="#eec373" d="M 189.226562 179.070312 C 188.753906 177.023438 188.269531 174.910156 185.835938 172.425781 C 181.648438 168.148438 174.808594 168.226562 174.742188 168.226562 C 174.675781 168.222656 170.863281 168.1875 167.1875 169.941406 C 167.175781 169.960938 167.160156 169.972656 167.136719 169.976562 C 167.132812 169.976562 167.125 169.976562 167.117188 169.976562 C 165.816406 170.589844 164.660156 171.40625 163.644531 172.425781 C 161.214844 174.90625 160.726562 177.019531 160.25 179.070312 C 159.808594 180.980469 159.390625 182.78125 157.523438 184.820312 C 154.515625 188.109375 154.636719 189.308594 154.832031 189.671875 C 154.96875 189.949219 155.308594 190.058594 155.746094 189.992188 C 156.171875 189.925781 156.582031 189.804688 156.976562 189.632812 C 157.007812 189.621094 157.03125 189.625 157.054688 189.648438 C 157.074219 189.671875 157.078125 189.695312 157.066406 189.726562 C 157.058594 189.738281 156.285156 191.25 157.050781 191.71875 C 157.816406 192.191406 158.765625 191.5625 158.773438 191.558594 C 158.796875 191.542969 158.820312 191.542969 158.84375 191.558594 C 158.882812 191.578125 163.109375 193.71875 174.605469 193.71875 C 186.097656 193.71875 190.585938 191.574219 190.628906 191.546875 C 190.652344 191.535156 190.675781 191.535156 190.699219 191.546875 C 190.707031 191.554688 191.640625 192.191406 192.421875 191.710938 C 193.203125 191.230469 192.414062 189.730469 192.40625 189.714844 C 192.394531 189.6875 192.398438 189.660156 192.417969 189.636719 C 192.441406 189.613281 192.464844 189.609375 192.496094 189.625 C 192.890625 189.796875 193.300781 189.914062 193.726562 189.984375 C 194.164062 190.050781 194.496094 189.933594 194.640625 189.664062 C 194.835938 189.300781 194.957031 188.097656 191.949219 184.8125 C 190.085938 182.78125 189.667969 180.976562 189.226562 179.070312 Z M 189.226562 179.070312 " fill-opacity="1" fill-rule="nonzero"/><path fill="#edbd66" d="M 189.226562 179.070312 C 188.753906 177.023438 188.269531 174.910156 185.835938 172.425781 C 181.648438 168.148438 174.808594 168.226562 174.742188 168.226562 C 174.675781 168.222656 170.863281 168.1875 167.1875 169.941406 C 167.175781 169.960938 167.160156 169.972656 167.136719 169.976562 C 167.132812 169.976562 167.125 169.976562 167.117188 169.976562 C 165.816406 170.589844 164.660156 171.40625 163.644531 172.425781 C 161.214844 174.90625 160.726562 177.019531 160.25 179.070312 C 159.808594 180.980469 159.390625 182.78125 157.523438 184.820312 C 154.515625 188.109375 154.636719 189.308594 154.832031 189.671875 C 154.96875 189.949219 155.308594 190.058594 155.746094 189.992188 C 156.171875 189.925781 156.582031 189.804688 156.976562 189.632812 C 157.007812 189.621094 157.03125 189.625 157.054688 189.648438 C 157.074219 189.671875 157.078125 189.695312 157.066406 189.726562 C 157.058594 189.738281 156.285156 191.25 157.050781 191.71875 C 157.816406 192.191406 158.765625 191.5625 158.773438 191.558594 C 158.796875 191.542969 158.820312 191.542969 158.84375 191.558594 C 158.882812 191.578125 163.109375 193.71875 174.605469 193.71875 C 186.097656 193.71875 190.585938 191.574219 190.628906 191.546875 C 190.652344 191.535156 190.675781 191.535156 190.699219 191.546875 C 190.707031 191.554688 191.640625 192.191406 192.421875 191.710938 C 193.203125 191.230469 192.414062 189.730469 192.40625 189.714844 C 192.394531 189.6875 192.398438 189.660156 192.417969 189.636719 C 192.441406 189.613281 192.464844 189.609375 192.496094 189.625 C 192.890625 189.796875 193.300781 189.914062 193.726562 189.984375 C 194.164062 190.050781 194.496094 189.933594 194.640625 189.664062 C 194.835938 189.300781 194.957031 188.097656 191.949219 184.8125 C 190.085938 182.78125 189.667969 180.976562 189.226562 179.070312 Z M 189.226562 179.070312 " fill-opacity="1" fill-rule="nonzero"/></g><path fill="#ffdf7b" d="M 192.617188 188.507812 C 192.992188 188.671875 193.382812 188.785156 193.785156 188.851562 C 194.160156 188.910156 194.453125 188.820312 194.605469 188.613281 C 194.355469 187.863281 193.648438 186.675781 191.953125 184.816406 C 190.085938 182.78125 189.667969 180.96875 189.226562 179.066406 C 188.753906 177.019531 188.269531 174.90625 185.835938 172.421875 C 182.34375 168.851562 177 168.316406 175.289062 168.234375 C 174.15625 168.289062 171.371094 168.558594 168.675781 169.847656 C 168.664062 169.867188 168.648438 169.878906 168.628906 169.878906 C 168.621094 169.882812 168.617188 169.882812 168.609375 169.878906 C 167.378906 170.464844 166.285156 171.238281 165.324219 172.203125 C 163.027344 174.554688 162.5625 176.558594 162.113281 178.496094 C 161.695312 180.308594 161.300781 182.019531 159.535156 183.949219 C 156.6875 187.066406 156.796875 188.203125 156.988281 188.546875 C 157.125 188.804688 157.4375 188.914062 157.851562 188.851562 C 158.257812 188.785156 158.648438 188.671875 159.023438 188.507812 C 159.050781 188.496094 159.074219 188.5 159.097656 188.523438 C 159.117188 188.542969 159.121094 188.570312 159.105469 188.59375 C 159.097656 188.609375 158.367188 190.039062 159.09375 190.488281 C 159.816406 190.933594 160.714844 190.339844 160.722656 190.339844 C 160.734375 190.328125 160.746094 190.324219 160.757812 190.324219 C 160.769531 190.324219 160.78125 190.328125 160.789062 190.332031 C 160.828125 190.355469 164.824219 192.382812 175.703125 192.382812 C 186.578125 192.382812 190.8125 190.351562 190.855469 190.332031 C 190.875 190.320312 190.898438 190.320312 190.917969 190.332031 C 190.925781 190.332031 191.808594 190.941406 192.546875 190.484375 C 192.59375 190.460938 192.632812 190.429688 192.667969 190.390625 C 192.601562 190.160156 192.515625 189.9375 192.410156 189.722656 C 192.394531 189.691406 192.398438 189.667969 192.421875 189.644531 C 192.441406 189.621094 192.46875 189.617188 192.496094 189.628906 C 192.496094 189.628906 192.632812 189.695312 192.867188 189.765625 C 192.832031 189.351562 192.71875 188.960938 192.535156 188.589844 C 192.519531 188.5625 192.523438 188.539062 192.546875 188.515625 C 192.566406 188.5 192.589844 188.496094 192.617188 188.507812 Z M 192.617188 188.507812 " fill-opacity="1" fill-rule="nonzero"/><path fill="#ffdf7b" d="M 163.546875 172.335938 C 164.574219 171.308594 165.742188 170.484375 167.054688 169.863281 C 166.964844 169.296875 166.234375 164.972656 163.90625 163.566406 C 163.496094 163.320312 163.066406 163.367188 162.625 163.703125 C 160.730469 165.171875 158.957031 172.25 160.472656 177.601562 C 160.929688 175.964844 161.660156 174.261719 163.546875 172.335938 Z M 163.546875 172.335938 " fill-opacity="1" fill-rule="nonzero"/><path fill="#ffdf7b" d="M 185.914062 172.21875 C 184.890625 171.167969 183.722656 170.324219 182.40625 169.6875 C 182.492188 169.113281 183.226562 164.695312 185.554688 163.261719 C 185.964844 163.007812 186.394531 163.054688 186.832031 163.398438 C 188.726562 164.894531 190.5 172.121094 188.984375 177.585938 C 188.527344 175.929688 187.800781 174.1875 185.914062 172.21875 Z M 185.914062 172.21875 " fill-opacity="1" fill-rule="nonzero"/><path fill="#ffdf7b" d="M 185.914062 172.21875 C 184.890625 171.167969 183.722656 170.324219 182.40625 169.6875 C 182.492188 169.113281 183.226562 164.695312 185.554688 163.261719 C 185.964844 163.007812 186.394531 163.054688 186.832031 163.398438 C 188.726562 164.894531 190.5 172.121094 188.984375 177.585938 C 188.527344 175.929688 187.800781 174.1875 185.914062 172.21875 Z M 185.914062 172.21875 " fill-opacity="1" fill-rule="nonzero"/><g clip-path="url(#faacf3d7a3)"><path fill="#eae2ce" d="M 192.496094 189.628906 C 192.890625 189.800781 193.300781 189.921875 193.726562 189.988281 C 194.164062 190.058594 194.496094 189.941406 194.640625 189.667969 C 194.8125 189.351562 194.925781 188.390625 192.933594 185.957031 C 192.542969 185.628906 190.335938 183.878906 187.269531 183.628906 C 180.648438 183.09375 174.683594 180.820312 174.683594 180.820312 C 174.683594 180.820312 168.183594 183.210938 162.632812 183.683594 C 159.707031 183.929688 157.367188 185.34375 156.625 185.839844 C 154.546875 188.359375 154.660156 189.347656 154.832031 189.667969 C 154.96875 189.945312 155.308594 190.054688 155.746094 189.988281 C 156.171875 189.921875 156.582031 189.800781 156.976562 189.628906 C 157.007812 189.613281 157.03125 189.621094 157.054688 189.640625 C 157.074219 189.667969 157.078125 189.691406 157.066406 189.722656 C 157.058594 189.734375 156.285156 191.246094 157.050781 191.714844 C 157.816406 192.1875 158.765625 191.558594 158.773438 191.550781 C 158.796875 191.539062 158.820312 191.539062 158.84375 191.550781 C 158.882812 191.574219 163.109375 193.714844 174.605469 193.714844 C 186.097656 193.714844 190.585938 191.574219 190.628906 191.546875 C 190.652344 191.535156 190.675781 191.535156 190.699219 191.546875 C 190.707031 191.554688 191.640625 192.191406 192.421875 191.710938 C 193.203125 191.230469 192.414062 189.730469 192.40625 189.714844 C 192.394531 189.6875 192.398438 189.660156 192.417969 189.636719 C 192.441406 189.613281 192.464844 189.609375 192.496094 189.625 Z M 192.496094 189.628906 " fill-opacity="1" fill-rule="nonzero"/></g><path fill="#fffbf0" d="M 194.492188 188.332031 L 194.476562 188.292969 C 194.460938 188.25 194.441406 188.210938 194.417969 188.167969 L 194.40625 188.136719 C 194.378906 188.082031 194.351562 188.027344 194.324219 187.96875 L 194.316406 187.953125 C 194.289062 187.902344 194.257812 187.847656 194.226562 187.796875 L 194.199219 187.746094 L 194.121094 187.605469 L 194.089844 187.554688 C 194.050781 187.496094 194.015625 187.433594 193.972656 187.371094 L 193.96875 187.355469 L 193.832031 187.148438 L 193.789062 187.089844 L 193.679688 186.929688 C 193.660156 186.90625 193.644531 186.882812 193.628906 186.855469 L 193.5 186.679688 L 193.460938 186.625 C 193.402344 186.546875 193.339844 186.464844 193.277344 186.382812 L 193.234375 186.328125 C 193.183594 186.261719 193.128906 186.191406 193.074219 186.125 C 193.050781 186.097656 193.027344 186.070312 193.007812 186.039062 L 192.933594 185.953125 C 192.53125 185.613281 190.335938 183.875 187.273438 183.628906 C 180.652344 183.09375 174.683594 180.816406 174.683594 180.816406 C 174.683594 180.816406 168.1875 183.207031 162.632812 183.679688 C 161.355469 183.800781 160.125 184.113281 158.941406 184.613281 C 156.699219 187.226562 156.8125 188.230469 156.980469 188.546875 C 157.117188 188.804688 157.433594 188.914062 157.847656 188.851562 C 158.25 188.789062 158.640625 188.671875 159.015625 188.507812 C 159.042969 188.496094 159.070312 188.5 159.089844 188.523438 C 159.109375 188.546875 159.113281 188.570312 159.097656 188.597656 C 159.09375 188.613281 158.363281 190.042969 159.085938 190.488281 C 159.808594 190.933594 160.714844 190.339844 160.722656 190.339844 C 160.734375 190.328125 160.746094 190.324219 160.757812 190.324219 C 160.769531 190.324219 160.78125 190.328125 160.789062 190.332031 C 160.828125 190.355469 164.824219 192.382812 175.703125 192.382812 C 186.578125 192.382812 190.8125 190.351562 190.855469 190.332031 C 190.875 190.320312 190.898438 190.320312 190.917969 190.332031 C 190.925781 190.332031 191.808594 190.941406 192.546875 190.484375 C 192.59375 190.460938 192.632812 190.429688 192.667969 190.390625 C 192.667969 190.371094 192.65625 190.351562 192.648438 190.328125 L 192.625 190.25 C 192.617188 190.226562 192.609375 190.203125 192.601562 190.179688 L 192.578125 190.117188 L 192.554688 190.050781 C 192.546875 190.035156 192.539062 190.015625 192.53125 189.996094 C 192.523438 189.980469 192.515625 189.960938 192.511719 189.941406 C 192.503906 189.925781 192.496094 189.910156 192.488281 189.894531 C 192.484375 189.882812 192.476562 189.863281 192.472656 189.851562 L 192.441406 189.789062 L 192.429688 189.757812 C 192.425781 189.753906 192.421875 189.75 192.421875 189.742188 C 192.417969 189.738281 192.414062 189.730469 192.414062 189.726562 C 192.398438 189.699219 192.402344 189.671875 192.425781 189.648438 C 192.445312 189.625 192.472656 189.621094 192.5 189.632812 C 192.5 189.632812 192.636719 189.699219 192.867188 189.773438 C 192.832031 189.359375 192.722656 188.964844 192.539062 188.59375 C 192.523438 188.570312 192.527344 188.542969 192.546875 188.523438 C 192.570312 188.5 192.59375 188.496094 192.621094 188.507812 C 192.996094 188.671875 193.386719 188.785156 193.792969 188.851562 C 194.167969 188.910156 194.460938 188.820312 194.613281 188.613281 C 194.597656 188.570312 194.582031 188.523438 194.5625 188.476562 L 194.550781 188.453125 C 194.53125 188.414062 194.515625 188.371094 194.492188 188.332031 Z M 194.492188 188.332031 " fill-opacity="1" fill-rule="nonzero"/><path fill="#fffbf0" d="M 180.917969 177.96875 C 181.140625 177.945312 181.355469 177.890625 181.558594 177.800781 C 181.761719 177.726562 181.871094 177.582031 181.878906 177.363281 C 181.863281 177.121094 181.605469 176.910156 181.363281 176.734375 C 181.074219 176.527344 180.753906 176.304688 180.386719 176.265625 C 179.871094 176.214844 179.496094 176.542969 179.195312 176.835938 C 178.894531 177.132812 178.535156 177.414062 178.207031 177.726562 C 177.921875 178.003906 178.289062 178.449219 178.742188 178.378906 C 179.480469 178.269531 180.222656 178.085938 180.917969 177.96875 Z M 180.917969 177.96875 " fill-opacity="1" fill-rule="nonzero"/><path fill="#fffbf0" d="M 168.8125 177.96875 C 168.59375 177.945312 168.378906 177.890625 168.175781 177.800781 C 167.972656 177.726562 167.867188 177.582031 167.855469 177.363281 C 167.871094 177.121094 168.128906 176.910156 168.371094 176.734375 C 168.660156 176.527344 168.980469 176.304688 169.347656 176.265625 C 169.863281 176.214844 170.238281 176.542969 170.539062 176.835938 C 170.839844 177.132812 171.199219 177.414062 171.527344 177.726562 C 171.8125 178.003906 171.445312 178.449219 170.992188 178.378906 C 170.253906 178.269531 169.511719 178.085938 168.8125 177.96875 Z M 168.8125 177.96875 " fill-opacity="1" fill-rule="nonzero"/><path fill="#af7537" d="M 170.90625 184.015625 C 170.90625 184.015625 169.382812 186.054688 171.257812 187.039062 C 173.136719 188.023438 176.84375 188.042969 176.84375 188.042969 C 176.84375 188.042969 179.148438 187.394531 179.492188 185.957031 C 179.835938 184.519531 178.992188 183.4375 177.714844 183.496094 C 176.4375 183.554688 176.023438 184.859375 174.515625 184.648438 C 173.007812 184.4375 171.96875 183.109375 170.90625 184.015625 Z M 170.90625 184.015625 " fill-opacity="1" fill-rule="nonzero"/><path fill="#ff9999" d="M 171.160156 186.992188 C 171.191406 187.007812 171.222656 187.03125 171.257812 187.046875 C 173.136719 188.039062 176.839844 188.042969 176.839844 188.042969 C 177.332031 187.890625 177.800781 187.683594 178.246094 187.417969 C 178.054688 186.300781 176.511719 185.429688 174.632812 185.429688 C 173 185.429688 171.617188 186.085938 171.160156 186.992188 Z M 171.160156 186.992188 " fill-opacity="1" fill-rule="nonzero"/><path fill="#ff9999" d="M 184.460938 170.96875 C 184.460938 170.96875 185.082031 166.074219 186.730469 166.246094 C 188.378906 166.417969 188.644531 173.871094 188.175781 175.394531 C 188.175781 175.394531 186.859375 172.679688 184.460938 170.96875 Z M 184.460938 170.96875 " fill-opacity="1" fill-rule="nonzero"/><path fill="#ff9999" d="M 165.089844 170.96875 C 165.089844 170.96875 164.46875 166.074219 162.820312 166.246094 C 161.175781 166.417969 160.90625 173.871094 161.375 175.394531 C 161.375 175.394531 162.691406 172.679688 165.089844 170.96875 Z M 165.089844 170.96875 " fill-opacity="1" fill-rule="nonzero"/><path fill="#af7537" d="M 174.777344 185.558594 C 174.671875 185.328125 174.542969 185.113281 174.382812 184.914062 C 174.296875 184.785156 174.175781 184.71875 174.019531 184.71875 C 173.878906 184.703125 173.78125 184.765625 173.726562 184.894531 C 173.710938 184.945312 173.722656 184.988281 173.761719 185.019531 C 173.785156 185.046875 173.816406 185.066406 173.839844 185.09375 C 173.871094 185.132812 173.902344 185.171875 173.9375 185.207031 C 173.996094 185.257812 174.046875 185.3125 174.089844 185.371094 C 174.21875 185.542969 174.328125 185.71875 174.429688 185.90625 C 174.53125 186.082031 174.621094 186.261719 174.703125 186.449219 C 174.785156 186.644531 174.859375 186.835938 174.949219 187.03125 C 174.964844 187.058594 174.984375 187.066406 175.015625 187.0625 C 175.046875 187.058594 175.066406 187.042969 175.074219 187.015625 C 175.136719 186.519531 174.988281 186.007812 174.777344 185.558594 Z M 174.777344 185.558594 " fill-opacity="1" fill-rule="nonzero"/><path fill="#fff2a4" d="M 192.382812 185.296875 C 192.246094 185.140625 192.109375 184.984375 191.953125 184.816406 C 190.085938 182.78125 189.667969 180.96875 189.226562 179.066406 C 188.753906 177.019531 188.269531 174.90625 185.835938 172.421875 C 182.34375 168.851562 177 168.316406 175.289062 168.234375 C 175.289062 168.234375 184.183594 169.597656 186.898438 175.105469 C 189.308594 179.996094 188.160156 182.410156 191.960938 185.054688 C 192.09375 185.148438 192.234375 185.230469 192.382812 185.296875 Z M 192.382812 185.296875 " fill-opacity="1" fill-rule="nonzero"/><path fill="#edbd66" d="M 164.507812 171.457031 L 164.589844 171.394531 L 164.648438 171.304688 Z M 164.507812 171.457031 " fill-opacity="1" fill-rule="nonzero"/><path fill="#edbd66" d="M 161.167969 173.144531 C 160.015625 171.398438 161.6875 165.160156 161.6875 165.160156 L 161.523438 165.214844 C 160.15625 167.953125 159.269531 173.320312 160.476562 177.589844 C 160.902344 176.0625 161.574219 174.464844 163.214844 172.675781 C 162.449219 173.296875 161.574219 173.753906 161.167969 173.144531 Z M 161.167969 173.144531 " fill-opacity="1" fill-rule="nonzero"/><path fill="#edbd66" d="M 164.507812 171.457031 L 164.589844 171.394531 L 164.648438 171.304688 Z M 164.507812 171.457031 " fill-opacity="1" fill-rule="nonzero"/><path fill="#e57a7a" d="M 161.171875 173.144531 C 161.171875 174.085938 161.242188 174.875 161.351562 175.308594 C 161.855469 174.34375 162.476562 173.46875 163.21875 172.675781 C 162.449219 173.289062 161.574219 173.753906 161.171875 173.144531 Z M 161.171875 173.144531 " fill-opacity="1" fill-rule="nonzero"/><path fill="#edbd66" d="M 186.96875 173.449219 C 187.921875 174.691406 188.589844 176.074219 188.980469 177.589844 C 190.042969 173.757812 189.488281 169.070312 188.410156 166.085938 C 188.4375 166.320312 189.316406 175.441406 186.96875 173.449219 Z M 186.96875 173.449219 " fill-opacity="1" fill-rule="nonzero"/><path fill="#e57a7a" d="M 188.378906 172.550781 C 188.15625 173.570312 187.734375 174.097656 186.96875 173.449219 C 187.421875 174.039062 187.8125 174.664062 188.144531 175.332031 C 188.164062 175.371094 188.175781 175.394531 188.175781 175.394531 C 188.324219 174.910156 188.398438 173.816406 188.378906 172.550781 Z M 188.378906 172.550781 " fill-opacity="1" fill-rule="nonzero"/><g clip-path="url(#e941a67738)"><path fill="#af7537" d="M 192.199219 184.589844 C 190.390625 182.617188 189.984375 180.855469 189.554688 178.988281 C 189.457031 178.578125 189.359375 178.152344 189.246094 177.726562 C 190.734375 172.484375 189.226562 164.855469 187.03125 163.160156 C 186.5 162.746094 185.945312 162.699219 185.429688 163.011719 C 183.023438 164.46875 182.261719 168.675781 182.136719 169.480469 C 178.539062 167.84375 174.945312 167.882812 174.75 167.886719 C 174.554688 167.890625 170.9375 167.84375 167.339844 169.484375 C 167.117188 168.277344 166.296875 164.609375 164.082031 163.265625 C 163.550781 162.945312 162.980469 162.992188 162.425781 163.425781 C 160.1875 165.160156 158.667969 172.5625 160.179688 177.765625 C 160.1875 177.785156 160.195312 177.804688 160.207031 177.824219 C 160.105469 178.214844 160.015625 178.601562 159.925781 178.988281 C 159.492188 180.855469 159.085938 182.617188 157.28125 184.589844 C 154.992188 187.089844 154.042969 188.898438 154.535156 189.828125 C 154.75 190.234375 155.210938 190.414062 155.796875 190.320312 C 156.046875 190.28125 156.292969 190.226562 156.535156 190.152344 C 156.347656 190.734375 156.21875 191.59375 156.882812 192.003906 C 157.660156 192.480469 158.507812 192.101562 158.835938 191.914062 C 159.65625 192.289062 164.042969 194.046875 174.609375 194.046875 C 185.222656 194.046875 189.804688 192.277344 190.640625 191.914062 C 190.964844 192.097656 191.816406 192.480469 192.597656 192.003906 C 193.257812 191.589844 193.128906 190.734375 192.941406 190.152344 C 193.183594 190.226562 193.429688 190.28125 193.679688 190.320312 C 194.269531 190.414062 194.730469 190.230469 194.945312 189.828125 C 195.4375 188.898438 194.492188 187.089844 192.199219 184.589844 Z M 182.648438 169.683594 C 182.65625 169.632812 183.316406 164.917969 185.703125 163.472656 C 186.03125 163.273438 186.347656 163.308594 186.707031 163.585938 C 188.46875 164.949219 190.046875 171.558594 188.945312 176.71875 C 188.460938 175.3125 187.683594 173.832031 186.070312 172.183594 C 185.0625 171.167969 183.917969 170.34375 182.636719 169.710938 C 182.640625 169.703125 182.644531 169.691406 182.648438 169.683594 Z M 162.753906 163.855469 C 163.125 163.566406 163.46875 163.527344 163.808594 163.730469 C 165.898438 165 166.667969 168.78125 166.828125 169.726562 C 165.550781 170.355469 164.414062 171.175781 163.410156 172.1875 C 161.75 173.875 160.976562 175.394531 160.496094 176.839844 C 159.324219 171.660156 160.976562 165.230469 162.753906 163.855469 Z M 194.46875 189.574219 C 194.328125 189.847656 193.921875 189.8125 193.761719 189.789062 C 193.355469 189.726562 192.957031 189.609375 192.578125 189.445312 C 192.464844 189.398438 192.363281 189.417969 192.277344 189.507812 C 192.191406 189.597656 192.175781 189.699219 192.226562 189.8125 C 192.410156 190.164062 192.816406 191.238281 192.3125 191.542969 C 191.648438 191.957031 190.820312 191.390625 190.808594 191.386719 C 190.722656 191.328125 190.632812 191.320312 190.535156 191.367188 C 190.492188 191.386719 186.035156 193.507812 174.605469 193.507812 C 163.175781 193.507812 158.984375 191.390625 158.945312 191.371094 C 158.90625 191.351562 158.863281 191.339844 158.820312 191.339844 C 158.761719 191.339844 158.710938 191.355469 158.667969 191.386719 C 158.65625 191.386719 157.828125 191.953125 157.164062 191.542969 C 156.660156 191.238281 157.066406 190.167969 157.25 189.8125 C 157.300781 189.703125 157.28125 189.601562 157.199219 189.511719 C 157.113281 189.421875 157.011719 189.398438 156.898438 189.445312 C 156.519531 189.609375 156.125 189.722656 155.714844 189.789062 C 155.550781 189.8125 155.152344 189.84375 155.007812 189.574219 C 154.914062 189.390625 154.589844 188.320312 157.671875 184.953125 C 159.574219 182.878906 160.015625 180.964844 160.445312 179.113281 C 160.914062 177.09375 161.40625 175.003906 163.785156 172.5625 C 164.777344 171.570312 165.902344 170.773438 167.164062 170.171875 C 167.222656 170.164062 167.269531 170.140625 167.3125 170.101562 C 170.929688 168.382812 174.6875 168.417969 174.742188 168.421875 C 174.800781 168.429688 181.570312 168.355469 185.6875 172.5625 C 188.074219 175.003906 188.5625 177.097656 189.027344 179.113281 C 189.453125 180.964844 189.898438 182.878906 191.800781 184.957031 C 194.890625 188.320312 194.566406 189.394531 194.46875 189.574219 Z M 194.46875 189.574219 " fill-opacity="1" fill-rule="nonzero"/></g><path fill="#af7537" d="M 174.738281 181.523438 C 174.117188 181.523438 173.617188 181.386719 173.617188 182.027344 C 173.617188 182.175781 173.644531 182.320312 173.703125 182.457031 C 173.757812 182.59375 173.839844 182.71875 173.945312 182.824219 C 174.050781 182.929688 174.171875 183.011719 174.308594 183.066406 C 174.449219 183.125 174.589844 183.152344 174.738281 183.152344 C 174.886719 183.152344 175.03125 183.125 175.167969 183.066406 C 175.308594 183.011719 175.429688 182.929688 175.535156 182.824219 C 175.640625 182.71875 175.71875 182.59375 175.777344 182.457031 C 175.835938 182.320312 175.863281 182.175781 175.863281 182.027344 C 175.863281 181.382812 175.359375 181.523438 174.738281 181.523438 Z M 174.738281 181.523438 " fill-opacity="1" fill-rule="nonzero"/><path fill="#af7537" d="M 182.113281 179.234375 C 181.710938 178.871094 181.234375 178.6875 180.691406 178.683594 C 180.421875 178.675781 180.160156 178.722656 179.914062 178.828125 C 179.671875 178.929688 179.457031 179.074219 179.269531 179.261719 C 178.914062 179.613281 178.679688 180.039062 178.570312 180.527344 C 178.566406 180.542969 178.570312 180.554688 178.582031 180.566406 C 178.597656 180.582031 178.613281 180.582031 178.628906 180.566406 C 178.890625 180.203125 179.203125 179.886719 179.558594 179.613281 C 179.726562 179.492188 179.90625 179.402344 180.105469 179.339844 C 180.292969 179.277344 180.484375 179.25 180.679688 179.257812 C 181.097656 179.261719 181.476562 179.382812 181.820312 179.617188 C 182.175781 179.875 182.460938 180.195312 182.671875 180.578125 L 182.671875 180.589844 C 182.695312 180.632812 182.730469 180.644531 182.773438 180.628906 C 182.820312 180.609375 182.835938 180.578125 182.828125 180.53125 C 182.742188 180.015625 182.503906 179.582031 182.113281 179.234375 Z M 182.113281 179.234375 " fill-opacity="1" fill-rule="nonzero"/><path fill="#af7537" d="M 172.683594 181.570312 L 172.691406 181.570312 C 173.015625 181.433594 173.347656 181.335938 173.695312 181.285156 C 174.035156 181.230469 174.378906 181.207031 174.726562 181.214844 C 175.074219 181.214844 175.421875 181.234375 175.765625 181.277344 C 176.113281 181.308594 176.445312 181.398438 176.761719 181.550781 L 176.769531 181.550781 C 176.785156 181.558594 176.800781 181.558594 176.816406 181.550781 C 176.84375 181.535156 176.847656 181.515625 176.835938 181.488281 C 176.722656 181.3125 176.582031 181.175781 176.40625 181.074219 C 176.234375 180.972656 176.058594 180.890625 175.871094 180.828125 C 175.5 180.714844 175.117188 180.65625 174.730469 180.65625 C 174.335938 180.652344 173.953125 180.710938 173.582031 180.835938 C 173.195312 180.957031 172.871094 181.167969 172.605469 181.472656 C 172.589844 181.492188 172.585938 181.515625 172.597656 181.539062 C 172.617188 181.578125 172.644531 181.589844 172.683594 181.570312 Z M 172.683594 181.570312 " fill-opacity="1" fill-rule="nonzero"/><path fill="#af7537" d="M 170.847656 180.582031 C 170.867188 180.625 170.902344 180.640625 170.945312 180.617188 C 170.992188 180.597656 171.003906 180.5625 170.984375 180.519531 C 170.859375 180.027344 170.613281 179.609375 170.25 179.261719 C 170.058594 179.078125 169.84375 178.941406 169.601562 178.839844 C 169.351562 178.742188 169.09375 178.695312 168.828125 178.703125 C 168.292969 178.714844 167.824219 178.898438 167.421875 179.253906 C 167.042969 179.597656 166.8125 180.023438 166.730469 180.527344 C 166.726562 180.550781 166.734375 180.5625 166.757812 180.570312 C 166.777344 180.578125 166.792969 180.574219 166.804688 180.554688 C 167.023438 180.164062 167.316406 179.839844 167.679688 179.582031 C 168.03125 179.347656 168.414062 179.230469 168.835938 179.230469 C 169.039062 179.222656 169.230469 179.253906 169.417969 179.324219 C 169.613281 179.390625 169.789062 179.484375 169.953125 179.609375 C 170.300781 179.886719 170.597656 180.210938 170.847656 180.582031 Z M 170.847656 180.582031 " fill-opacity="1" fill-rule="nonzero"/><path fill="#af7537" d="M 177.773438 183.292969 C 177.21875 183.320312 176.75 183.589844 176.296875 183.851562 C 176.097656 183.972656 175.890625 184.085938 175.675781 184.183594 C 174.847656 184.546875 173.890625 184.476562 172.980469 183.976562 C 172.59375 183.765625 171.417969 183.121094 170.582031 184.089844 C 170.082031 184.667969 170.011719 185.59375 170.414062 186.339844 C 170.738281 186.949219 171.347656 187.441406 172.136719 187.734375 C 172.820312 187.988281 173.53125 188.066406 174.222656 188.148438 C 174.796875 188.222656 175.375 188.261719 175.953125 188.273438 C 176.367188 188.277344 176.78125 188.238281 177.1875 188.15625 C 178.328125 187.914062 179.238281 187.238281 179.621094 186.347656 C 179.921875 185.65625 179.898438 184.980469 179.542969 184.316406 C 179.363281 183.992188 179.117188 183.742188 178.796875 183.558594 C 178.480469 183.375 178.140625 183.285156 177.773438 183.292969 Z M 179.125 186.132812 C 178.816406 186.859375 178.046875 187.421875 177.074219 187.625 C 176.164062 187.820312 175.207031 187.714844 174.28125 187.609375 C 173.621094 187.535156 172.9375 187.457031 172.316406 187.230469 C 171.65625 186.984375 171.148438 186.578125 170.882812 186.085938 C 170.589844 185.535156 170.632812 184.847656 170.984375 184.4375 C 171.164062 184.210938 171.394531 184.097656 171.683594 184.101562 C 171.964844 184.101562 172.304688 184.214844 172.722656 184.445312 C 173.78125 185.023438 174.910156 185.105469 175.890625 184.671875 C 176.121094 184.5625 176.347656 184.445312 176.5625 184.3125 C 176.972656 184.070312 177.371094 183.84375 177.792969 183.824219 C 178.058594 183.820312 178.304688 183.886719 178.535156 184.019531 C 178.761719 184.152344 178.941406 184.335938 179.070312 184.570312 C 179.339844 185.082031 179.355469 185.601562 179.125 186.132812 Z M 179.125 186.132812 " fill-opacity="1" fill-rule="nonzero"/></svg>